<svg width="518" height="69" viewBox="0 0 518 69" fill="none" xmlns="http://www.w3.org/2000/svg">
<path d="M4.19922 30L9.16016 1.5625H12.6953L7.73438 30H4.19922ZM11.5234 30L16.5039 1.5625H20.0391L15.0586 30H11.5234ZM22.9492 12.9883H2.61719V9.6875H22.9492V12.9883ZM21.4648 21.9922H1.15234V18.7109H21.4648V21.9922ZM25.8984 0H31.5234V25.1562L30.957 30H25.8984V0ZM44.9023 19.2188V19.6289C44.9023 21.2044 44.7331 22.6497 44.3945 23.9648C44.069 25.2799 43.5612 26.4193 42.8711 27.3828C42.181 28.3333 41.3216 29.0755 40.293 29.6094C39.2773 30.1302 38.0794 30.3906 36.6992 30.3906C35.4102 30.3906 34.2904 30.1302 33.3398 29.6094C32.4023 29.0885 31.6146 28.3529 30.9766 27.4023C30.3385 26.4518 29.8242 25.3385 29.4336 24.0625C29.043 22.7865 28.75 21.3932 28.5547 19.8828V18.9844C28.75 17.474 29.043 16.0807 29.4336 14.8047C29.8242 13.5286 30.3385 12.4154 30.9766 11.4648C31.6146 10.5143 32.4023 9.77865 33.3398 9.25781C34.2773 8.73698 35.3841 8.47656 36.6602 8.47656C38.0534 8.47656 39.2643 8.74349 40.293 9.27734C41.3346 9.79818 42.194 10.5404 42.8711 11.5039C43.5612 12.4544 44.069 13.5872 44.3945 14.9023C44.7331 16.2044 44.9023 17.6432 44.9023 19.2188ZM39.2773 19.6289V19.2188C39.2773 18.3594 39.2122 17.5521 39.082 16.7969C38.9648 16.0286 38.7565 15.3581 38.457 14.7852C38.1576 14.1992 37.7474 13.737 37.2266 13.3984C36.7188 13.0599 36.0612 12.8906 35.2539 12.8906C34.4857 12.8906 33.8346 13.0208 33.3008 13.2812C32.7669 13.5417 32.3242 13.9062 31.9727 14.375C31.6341 14.8438 31.3802 15.4036 31.2109 16.0547C31.0417 16.6927 30.9375 17.3958 30.8984 18.1641V20.7227C30.9375 21.7513 31.1068 22.6628 31.4062 23.457C31.7188 24.2383 32.1875 24.8568 32.8125 25.3125C33.4505 25.7552 34.2773 25.9766 35.293 25.9766C36.0872 25.9766 36.7448 25.8203 37.2656 25.5078C37.7865 25.1953 38.1901 24.7526 38.4766 24.1797C38.776 23.6068 38.9844 22.9362 39.1016 22.168C39.2188 21.3867 39.2773 20.5404 39.2773 19.6289ZM47.5 19.6484V19.2383C47.5 17.6888 47.7214 16.263 48.1641 14.9609C48.6068 13.6458 49.2513 12.5065 50.0977 11.543C50.944 10.5794 51.9857 9.83073 53.2227 9.29688C54.4596 8.75 55.8789 8.47656 57.4805 8.47656C59.082 8.47656 60.5078 8.75 61.7578 9.29688C63.0078 9.83073 64.056 10.5794 64.9023 11.543C65.7617 12.5065 66.4128 13.6458 66.8555 14.9609C67.2982 16.263 67.5195 17.6888 67.5195 19.2383V19.6484C67.5195 21.1849 67.2982 22.6107 66.8555 23.9258C66.4128 25.2279 65.7617 26.3672 64.9023 27.3438C64.056 28.3073 63.0143 29.056 61.7773 29.5898C60.5404 30.1237 59.1211 30.3906 57.5195 30.3906C55.918 30.3906 54.4922 30.1237 53.2422 29.5898C52.0052 29.056 50.957 28.3073 50.0977 27.3438C49.2513 26.3672 48.6068 25.2279 48.1641 23.9258C47.7214 22.6107 47.5 21.1849 47.5 19.6484ZM53.125 19.2383V19.6484C53.125 20.5339 53.2031 21.3607 53.3594 22.1289C53.5156 22.8971 53.763 23.5742 54.1016 24.1602C54.4531 24.7331 54.9089 25.1823 55.4688 25.5078C56.0286 25.8333 56.7122 25.9961 57.5195 25.9961C58.3008 25.9961 58.9714 25.8333 59.5312 25.5078C60.0911 25.1823 60.5404 24.7331 60.8789 24.1602C61.2174 23.5742 61.4648 22.8971 61.6211 22.1289C61.7904 21.3607 61.875 20.5339 61.875 19.6484V19.2383C61.875 18.3789 61.7904 17.5716 61.6211 16.8164C61.4648 16.0482 61.2109 15.3711 60.8594 14.7852C60.5208 14.1862 60.0716 13.7174 59.5117 13.3789C58.9518 13.0404 58.2747 12.8711 57.4805 12.8711C56.6862 12.8711 56.0091 13.0404 55.4492 13.3789C54.9023 13.7174 54.4531 14.1862 54.1016 14.7852C53.763 15.3711 53.5156 16.0482 53.3594 16.8164C53.2031 17.5716 53.125 18.3789 53.125 19.2383ZM76.6016 13.4766V30H70.9766V8.86719H76.2695L76.6016 13.4766ZM82.9688 8.73047L82.8711 13.9453C82.5977 13.9062 82.2656 13.8737 81.875 13.8477C81.4974 13.8086 81.1523 13.7891 80.8398 13.7891C80.0456 13.7891 79.3555 13.8932 78.7695 14.1016C78.1966 14.2969 77.7148 14.5898 77.3242 14.9805C76.9466 15.3711 76.6602 15.8464 76.4648 16.4062C76.2826 16.9661 76.1784 17.6042 76.1523 18.3203L75.0195 17.9688C75.0195 16.6016 75.1562 15.3451 75.4297 14.1992C75.7031 13.0404 76.1003 12.0312 76.6211 11.1719C77.1549 10.3125 77.806 9.64844 78.5742 9.17969C79.3424 8.71094 80.2214 8.47656 81.2109 8.47656C81.5234 8.47656 81.8424 8.5026 82.168 8.55469C82.4935 8.59375 82.7604 8.65234 82.9688 8.73047ZM96.3672 25.2344V15.8203C96.3672 15.1432 96.2565 14.5638 96.0352 14.082C95.8138 13.5872 95.4688 13.2031 95 12.9297C94.5443 12.6562 93.9518 12.5195 93.2227 12.5195C92.5977 12.5195 92.0573 12.6302 91.6016 12.8516C91.1458 13.0599 90.7943 13.3659 90.5469 13.7695C90.2995 14.1602 90.1758 14.6224 90.1758 15.1562H84.5508C84.5508 14.2578 84.7591 13.4049 85.1758 12.5977C85.5924 11.7904 86.1979 11.0807 86.9922 10.4688C87.7865 9.84375 88.7305 9.35547 89.8242 9.00391C90.931 8.65234 92.168 8.47656 93.5352 8.47656C95.1758 8.47656 96.6341 8.75 97.9102 9.29688C99.1862 9.84375 100.189 10.6641 100.918 11.7578C101.66 12.8516 102.031 14.2188 102.031 15.8594V24.9023C102.031 26.0612 102.103 27.0117 102.246 27.7539C102.389 28.4831 102.598 29.1211 102.871 29.668V30H97.1875C96.9141 29.4271 96.7057 28.7109 96.5625 27.8516C96.4323 26.9792 96.3672 26.1068 96.3672 25.2344ZM97.1094 17.1289L97.1484 20.3125H94.0039C93.2617 20.3125 92.6172 20.3971 92.0703 20.5664C91.5234 20.7357 91.0742 20.9766 90.7227 21.2891C90.3711 21.5885 90.1107 21.9401 89.9414 22.3438C89.7852 22.7474 89.707 23.1901 89.707 23.6719C89.707 24.1536 89.8177 24.5898 90.0391 24.9805C90.2604 25.3581 90.5794 25.6576 90.9961 25.8789C91.4128 26.0872 91.901 26.1914 92.4609 26.1914C93.3073 26.1914 94.043 26.0221 94.668 25.6836C95.293 25.3451 95.7747 24.9284 96.1133 24.4336C96.4648 23.9388 96.6471 23.4701 96.6602 23.0273L98.1445 25.4102C97.9362 25.944 97.6497 26.4974 97.2852 27.0703C96.9336 27.6432 96.4844 28.1836 95.9375 28.6914C95.3906 29.1862 94.7331 29.5964 93.9648 29.9219C93.1966 30.2344 92.2852 30.3906 91.2305 30.3906C89.8893 30.3906 88.6719 30.1237 87.5781 29.5898C86.4974 29.043 85.638 28.2943 85 27.3438C84.375 26.3802 84.0625 25.2865 84.0625 24.0625C84.0625 22.9557 84.2708 21.9727 84.6875 21.1133C85.1042 20.2539 85.7161 19.5312 86.5234 18.9453C87.3438 18.3464 88.3659 17.8971 89.5898 17.5977C90.8138 17.2852 92.2331 17.1289 93.8477 17.1289H97.1094ZM123.203 20.5664H129.043C128.926 22.4805 128.398 24.1797 127.461 25.6641C126.536 27.1484 125.241 28.3073 123.574 29.1406C121.921 29.974 119.928 30.3906 117.598 30.3906C115.775 30.3906 114.141 30.0781 112.695 29.4531C111.25 28.8151 110.013 27.9036 108.984 26.7188C107.969 25.5339 107.194 24.1016 106.66 22.4219C106.126 20.7422 105.859 18.8607 105.859 16.7773V14.8047C105.859 12.7214 106.133 10.8398 106.68 9.16016C107.24 7.46745 108.034 6.02865 109.062 4.84375C110.104 3.65885 111.348 2.7474 112.793 2.10938C114.238 1.47135 115.853 1.15234 117.637 1.15234C120.007 1.15234 122.005 1.58203 123.633 2.44141C125.273 3.30078 126.543 4.48568 127.441 5.99609C128.353 7.50651 128.9 9.22526 129.082 11.1523H123.223C123.158 10.0065 122.93 9.03646 122.539 8.24219C122.148 7.4349 121.556 6.82943 120.762 6.42578C119.98 6.00911 118.939 5.80078 117.637 5.80078C116.66 5.80078 115.807 5.98307 115.078 6.34766C114.349 6.71224 113.737 7.26562 113.242 8.00781C112.747 8.75 112.376 9.6875 112.129 10.8203C111.895 11.9401 111.777 13.2552 111.777 14.7656V16.7773C111.777 18.2487 111.888 19.5443 112.109 20.6641C112.331 21.7708 112.669 22.7083 113.125 23.4766C113.594 24.2318 114.193 24.8047 114.922 25.1953C115.664 25.5729 116.556 25.7617 117.598 25.7617C118.822 25.7617 119.831 25.5664 120.625 25.1758C121.419 24.7852 122.025 24.2057 122.441 23.4375C122.871 22.6693 123.125 21.7122 123.203 20.5664ZM131.641 19.6484V19.2383C131.641 17.6888 131.862 16.263 132.305 14.9609C132.747 13.6458 133.392 12.5065 134.238 11.543C135.085 10.5794 136.126 9.83073 137.363 9.29688C138.6 8.75 140.02 8.47656 141.621 8.47656C143.223 8.47656 144.648 8.75 145.898 9.29688C147.148 9.83073 148.197 10.5794 149.043 11.543C149.902 12.5065 150.553 13.6458 150.996 14.9609C151.439 16.263 151.66 17.6888 151.66 19.2383V19.6484C151.66 21.1849 151.439 22.6107 150.996 23.9258C150.553 25.2279 149.902 26.3672 149.043 27.3438C148.197 28.3073 147.155 29.056 145.918 29.5898C144.681 30.1237 143.262 30.3906 141.66 30.3906C140.059 30.3906 138.633 30.1237 137.383 29.5898C136.146 29.056 135.098 28.3073 134.238 27.3438C133.392 26.3672 132.747 25.2279 132.305 23.9258C131.862 22.6107 131.641 21.1849 131.641 19.6484ZM137.266 19.2383V19.6484C137.266 20.5339 137.344 21.3607 137.5 22.1289C137.656 22.8971 137.904 23.5742 138.242 24.1602C138.594 24.7331 139.049 25.1823 139.609 25.5078C140.169 25.8333 140.853 25.9961 141.66 25.9961C142.441 25.9961 143.112 25.8333 143.672 25.5078C144.232 25.1823 144.681 24.7331 145.02 24.1602C145.358 23.5742 145.605 22.8971 145.762 22.1289C145.931 21.3607 146.016 20.5339 146.016 19.6484V19.2383C146.016 18.3789 145.931 17.5716 145.762 16.8164C145.605 16.0482 145.352 15.3711 145 14.7852C144.661 14.1862 144.212 13.7174 143.652 13.3789C143.092 13.0404 142.415 12.8711 141.621 12.8711C140.827 12.8711 140.15 13.0404 139.59 13.3789C139.043 13.7174 138.594 14.1862 138.242 14.7852C137.904 15.3711 137.656 16.0482 137.5 16.8164C137.344 17.5716 137.266 18.3789 137.266 19.2383ZM167.598 25.3906V0H173.262V30H168.164L167.598 25.3906ZM154.238 19.6875V19.2773C154.238 17.6628 154.421 16.1979 154.785 14.8828C155.15 13.5547 155.684 12.4154 156.387 11.4648C157.09 10.5143 157.956 9.77865 158.984 9.25781C160.013 8.73698 161.185 8.47656 162.5 8.47656C163.737 8.47656 164.818 8.73698 165.742 9.25781C166.68 9.77865 167.474 10.5208 168.125 11.4844C168.789 12.4349 169.323 13.5612 169.727 14.8633C170.13 16.1523 170.423 17.5651 170.605 19.1016V20C170.423 21.4714 170.13 22.8385 169.727 24.1016C169.323 25.3646 168.789 26.4714 168.125 27.4219C167.474 28.3594 166.68 29.0885 165.742 29.6094C164.805 30.1302 163.711 30.3906 162.461 30.3906C161.146 30.3906 159.974 30.1237 158.945 29.5898C157.93 29.056 157.07 28.3073 156.367 27.3438C155.677 26.3802 155.15 25.2474 154.785 23.9453C154.421 22.6432 154.238 21.224 154.238 19.6875ZM159.863 19.2773V19.6875C159.863 20.5599 159.928 21.3737 160.059 22.1289C160.202 22.8841 160.43 23.5547 160.742 24.1406C161.068 24.7135 161.484 25.1628 161.992 25.4883C162.513 25.8008 163.145 25.957 163.887 25.957C164.85 25.957 165.645 25.7422 166.27 25.3125C166.895 24.8698 167.37 24.2643 167.695 23.4961C168.034 22.7279 168.229 21.8424 168.281 20.8398V18.2812C168.242 17.4609 168.125 16.7253 167.93 16.0742C167.747 15.4102 167.474 14.8438 167.109 14.375C166.758 13.9062 166.315 13.5417 165.781 13.2812C165.26 13.0208 164.642 12.8906 163.926 12.8906C163.197 12.8906 162.572 13.0599 162.051 13.3984C161.53 13.724 161.107 14.1732 160.781 14.7461C160.469 15.319 160.234 15.9961 160.078 16.7773C159.935 17.5456 159.863 18.3789 159.863 19.2773ZM189.062 25.2344V15.8203C189.062 15.1432 188.952 14.5638 188.73 14.082C188.509 13.5872 188.164 13.2031 187.695 12.9297C187.24 12.6562 186.647 12.5195 185.918 12.5195C185.293 12.5195 184.753 12.6302 184.297 12.8516C183.841 13.0599 183.49 13.3659 183.242 13.7695C182.995 14.1602 182.871 14.6224 182.871 15.1562H177.246C177.246 14.2578 177.454 13.4049 177.871 12.5977C178.288 11.7904 178.893 11.0807 179.688 10.4688C180.482 9.84375 181.426 9.35547 182.52 9.00391C183.626 8.65234 184.863 8.47656 186.23 8.47656C187.871 8.47656 189.329 8.75 190.605 9.29688C191.882 9.84375 192.884 10.6641 193.613 11.7578C194.355 12.8516 194.727 14.2188 194.727 15.8594V24.9023C194.727 26.0612 194.798 27.0117 194.941 27.7539C195.085 28.4831 195.293 29.1211 195.566 29.668V30H189.883C189.609 29.4271 189.401 28.7109 189.258 27.8516C189.128 26.9792 189.062 26.1068 189.062 25.2344ZM189.805 17.1289L189.844 20.3125H186.699C185.957 20.3125 185.312 20.3971 184.766 20.5664C184.219 20.7357 183.77 20.9766 183.418 21.2891C183.066 21.5885 182.806 21.9401 182.637 22.3438C182.48 22.7474 182.402 23.1901 182.402 23.6719C182.402 24.1536 182.513 24.5898 182.734 24.9805C182.956 25.3581 183.275 25.6576 183.691 25.8789C184.108 26.0872 184.596 26.1914 185.156 26.1914C186.003 26.1914 186.738 26.0221 187.363 25.6836C187.988 25.3451 188.47 24.9284 188.809 24.4336C189.16 23.9388 189.342 23.4701 189.355 23.0273L190.84 25.4102C190.632 25.944 190.345 26.4974 189.98 27.0703C189.629 27.6432 189.18 28.1836 188.633 28.6914C188.086 29.1862 187.428 29.5964 186.66 29.9219C185.892 30.2344 184.98 30.3906 183.926 30.3906C182.585 30.3906 181.367 30.1237 180.273 29.5898C179.193 29.043 178.333 28.2943 177.695 27.3438C177.07 26.3802 176.758 25.2865 176.758 24.0625C176.758 22.9557 176.966 21.9727 177.383 21.1133C177.799 20.2539 178.411 19.5312 179.219 18.9453C180.039 18.3464 181.061 17.8971 182.285 17.5977C183.509 17.2852 184.928 17.1289 186.543 17.1289H189.805ZM204.688 13.4766V30H199.062V8.86719H204.355L204.688 13.4766ZM211.055 8.73047L210.957 13.9453C210.684 13.9062 210.352 13.8737 209.961 13.8477C209.583 13.8086 209.238 13.7891 208.926 13.7891C208.132 13.7891 207.441 13.8932 206.855 14.1016C206.283 14.2969 205.801 14.5898 205.41 14.9805C205.033 15.3711 204.746 15.8464 204.551 16.4062C204.368 16.9661 204.264 17.6042 204.238 18.3203L203.105 17.9688C203.105 16.6016 203.242 15.3451 203.516 14.1992C203.789 13.0404 204.186 12.0312 204.707 11.1719C205.241 10.3125 205.892 9.64844 206.66 9.17969C207.428 8.71094 208.307 8.47656 209.297 8.47656C209.609 8.47656 209.928 8.5026 210.254 8.55469C210.579 8.59375 210.846 8.65234 211.055 8.73047ZM377.197 64L379.961 49.7812H381.367L378.594 64H377.197ZM381.172 64L383.945 49.7812H385.342L382.568 64H381.172ZM386.533 55.2012H376.377V53.8438H386.533V55.2012ZM385.801 59.9961H375.635V58.6484H385.801V59.9961ZM388.164 49H389.98V61.9492L389.824 64H388.164V49ZM397.119 58.6289V58.834C397.119 59.6022 397.028 60.3151 396.846 60.9727C396.663 61.6237 396.396 62.1901 396.045 62.6719C395.693 63.1536 395.264 63.528 394.756 63.7949C394.248 64.0618 393.665 64.1953 393.008 64.1953C392.337 64.1953 391.748 64.0814 391.24 63.8535C390.739 63.6191 390.316 63.2839 389.971 62.8477C389.626 62.4115 389.349 61.8841 389.141 61.2656C388.939 60.6471 388.799 59.9505 388.721 59.1758V58.2773C388.799 57.4961 388.939 56.7962 389.141 56.1777C389.349 55.5592 389.626 55.0319 389.971 54.5957C390.316 54.153 390.739 53.8177 391.24 53.5898C391.742 53.3555 392.324 53.2383 392.988 53.2383C393.652 53.2383 394.242 53.3685 394.756 53.6289C395.27 53.8828 395.7 54.2474 396.045 54.7227C396.396 55.1979 396.663 55.7676 396.846 56.4316C397.028 57.0892 397.119 57.8216 397.119 58.6289ZM395.303 58.834V58.6289C395.303 58.1016 395.254 57.6068 395.156 57.1445C395.059 56.6758 394.902 56.2656 394.688 55.9141C394.473 55.556 394.189 55.276 393.838 55.0742C393.486 54.8659 393.053 54.7617 392.539 54.7617C392.083 54.7617 391.686 54.8398 391.348 54.9961C391.016 55.1523 390.732 55.3639 390.498 55.6309C390.264 55.8913 390.072 56.1908 389.922 56.5293C389.779 56.8613 389.671 57.2064 389.6 57.5645V59.918C389.704 60.3737 389.873 60.8132 390.107 61.2363C390.348 61.653 390.667 61.9948 391.064 62.2617C391.468 62.5286 391.966 62.6621 392.559 62.6621C393.047 62.6621 393.464 62.5645 393.809 62.3691C394.16 62.1673 394.443 61.8906 394.658 61.5391C394.88 61.1875 395.042 60.7806 395.146 60.3184C395.251 59.8561 395.303 59.3613 395.303 58.834ZM398.926 58.834V58.6094C398.926 57.8477 399.036 57.1413 399.258 56.4902C399.479 55.8327 399.798 55.263 400.215 54.7812C400.632 54.293 401.136 53.9154 401.729 53.6484C402.321 53.375 402.985 53.2383 403.721 53.2383C404.463 53.2383 405.13 53.375 405.723 53.6484C406.322 53.9154 406.829 54.293 407.246 54.7812C407.669 55.263 407.992 55.8327 408.213 56.4902C408.434 57.1413 408.545 57.8477 408.545 58.6094V58.834C408.545 59.5957 408.434 60.3021 408.213 60.9531C407.992 61.6042 407.669 62.1738 407.246 62.6621C406.829 63.1439 406.325 63.5215 405.732 63.7949C405.146 64.0618 404.482 64.1953 403.74 64.1953C402.998 64.1953 402.331 64.0618 401.738 63.7949C401.146 63.5215 400.638 63.1439 400.215 62.6621C399.798 62.1738 399.479 61.6042 399.258 60.9531C399.036 60.3021 398.926 59.5957 398.926 58.834ZM400.732 58.6094V58.834C400.732 59.3613 400.794 59.8594 400.918 60.3281C401.042 60.7904 401.227 61.2005 401.475 61.5586C401.729 61.9167 402.044 62.1999 402.422 62.4082C402.799 62.61 403.239 62.7109 403.74 62.7109C404.235 62.7109 404.668 62.61 405.039 62.4082C405.417 62.1999 405.729 61.9167 405.977 61.5586C406.224 61.2005 406.41 60.7904 406.533 60.3281C406.663 59.8594 406.729 59.3613 406.729 58.834V58.6094C406.729 58.0885 406.663 57.597 406.533 57.1348C406.41 56.666 406.221 56.2526 405.967 55.8945C405.719 55.5299 405.407 55.2435 405.029 55.0352C404.658 54.8268 404.222 54.7227 403.721 54.7227C403.226 54.7227 402.79 54.8268 402.412 55.0352C402.041 55.2435 401.729 55.5299 401.475 55.8945C401.227 56.2526 401.042 56.666 400.918 57.1348C400.794 57.597 400.732 58.0885 400.732 58.6094ZM412.617 55.0938V64H410.811V53.4336H412.568L412.617 55.0938ZM415.918 53.375L415.908 55.0547C415.758 55.0221 415.615 55.0026 415.479 54.9961C415.348 54.9831 415.199 54.9766 415.029 54.9766C414.613 54.9766 414.245 55.0417 413.926 55.1719C413.607 55.3021 413.337 55.4844 413.115 55.7188C412.894 55.9531 412.718 56.2331 412.588 56.5586C412.464 56.8776 412.383 57.2292 412.344 57.6133L411.836 57.9062C411.836 57.2682 411.898 56.6693 412.021 56.1094C412.152 55.5495 412.35 55.0547 412.617 54.625C412.884 54.1888 413.223 53.8503 413.633 53.6094C414.049 53.362 414.544 53.2383 415.117 53.2383C415.247 53.2383 415.397 53.2546 415.566 53.2871C415.736 53.3132 415.853 53.3424 415.918 53.375ZM423.428 62.1934V56.7539C423.428 56.3372 423.343 55.9759 423.174 55.6699C423.011 55.3574 422.764 55.1165 422.432 54.9473C422.1 54.778 421.689 54.6934 421.201 54.6934C420.745 54.6934 420.345 54.7715 420 54.9277C419.661 55.084 419.395 55.2891 419.199 55.543C419.01 55.7969 418.916 56.0703 418.916 56.3633H417.109C417.109 55.9857 417.207 55.6113 417.402 55.2402C417.598 54.8691 417.878 54.5339 418.242 54.2344C418.613 53.9284 419.056 53.6875 419.57 53.5117C420.091 53.3294 420.671 53.2383 421.309 53.2383C422.077 53.2383 422.754 53.3685 423.34 53.6289C423.932 53.8893 424.395 54.2832 424.727 54.8105C425.065 55.3314 425.234 55.9857 425.234 56.7734V61.6953C425.234 62.0469 425.264 62.4212 425.322 62.8184C425.387 63.2155 425.482 63.5573 425.605 63.8438V64H423.721C423.63 63.7917 423.558 63.515 423.506 63.1699C423.454 62.8184 423.428 62.4928 423.428 62.1934ZM423.74 57.5938L423.76 58.8633H421.934C421.419 58.8633 420.96 58.9056 420.557 58.9902C420.153 59.0684 419.814 59.1888 419.541 59.3516C419.268 59.5143 419.059 59.7194 418.916 59.9668C418.773 60.2077 418.701 60.4909 418.701 60.8164C418.701 61.1484 418.776 61.4512 418.926 61.7246C419.076 61.998 419.3 62.2161 419.6 62.3789C419.906 62.5352 420.28 62.6133 420.723 62.6133C421.276 62.6133 421.764 62.4961 422.188 62.2617C422.611 62.0273 422.946 61.7409 423.193 61.4023C423.447 61.0638 423.584 60.735 423.604 60.416L424.375 61.2852C424.329 61.5586 424.206 61.8613 424.004 62.1934C423.802 62.5254 423.532 62.8444 423.193 63.1504C422.861 63.4499 422.464 63.7005 422.002 63.9023C421.546 64.0977 421.032 64.1953 420.459 64.1953C419.743 64.1953 419.115 64.0553 418.574 63.7754C418.04 63.4954 417.624 63.1211 417.324 62.6523C417.031 62.1771 416.885 61.6465 416.885 61.0605C416.885 60.4941 416.995 59.9961 417.217 59.5664C417.438 59.1302 417.757 58.7689 418.174 58.4824C418.59 58.1895 419.092 57.9681 419.678 57.8184C420.264 57.6686 420.918 57.5938 421.641 57.5938H423.74ZM436.934 59.4785H438.809C438.711 60.377 438.454 61.181 438.037 61.8906C437.62 62.6003 437.031 63.1634 436.27 63.5801C435.508 63.9902 434.557 64.1953 433.418 64.1953C432.585 64.1953 431.826 64.0391 431.143 63.7266C430.465 63.4141 429.883 62.9714 429.395 62.3984C428.906 61.819 428.529 61.1257 428.262 60.3184C428.001 59.5046 427.871 58.5996 427.871 57.6035V56.1875C427.871 55.1914 428.001 54.2897 428.262 53.4824C428.529 52.6686 428.91 51.972 429.404 51.3926C429.906 50.8132 430.508 50.3672 431.211 50.0547C431.914 49.7422 432.705 49.5859 433.584 49.5859C434.658 49.5859 435.566 49.7878 436.309 50.1914C437.051 50.5951 437.627 51.1549 438.037 51.8711C438.454 52.5807 438.711 53.4043 438.809 54.3418H436.934C436.842 53.6777 436.673 53.1081 436.426 52.6328C436.178 52.151 435.827 51.7799 435.371 51.5195C434.915 51.2591 434.32 51.1289 433.584 51.1289C432.952 51.1289 432.396 51.2493 431.914 51.4902C431.439 51.7311 431.038 52.0729 430.713 52.5156C430.394 52.9583 430.153 53.4889 429.99 54.1074C429.827 54.7259 429.746 55.4128 429.746 56.168V57.6035C429.746 58.3001 429.818 58.9544 429.961 59.5664C430.111 60.1784 430.335 60.7155 430.635 61.1777C430.934 61.64 431.315 62.0046 431.777 62.2715C432.24 62.5319 432.786 62.6621 433.418 62.6621C434.219 62.6621 434.857 62.5352 435.332 62.2812C435.807 62.0273 436.165 61.6628 436.406 61.1875C436.654 60.7122 436.829 60.1426 436.934 59.4785ZM440.625 58.834V58.6094C440.625 57.8477 440.736 57.1413 440.957 56.4902C441.178 55.8327 441.497 55.263 441.914 54.7812C442.331 54.293 442.835 53.9154 443.428 53.6484C444.02 53.375 444.684 53.2383 445.42 53.2383C446.162 53.2383 446.829 53.375 447.422 53.6484C448.021 53.9154 448.529 54.293 448.945 54.7812C449.368 55.263 449.691 55.8327 449.912 56.4902C450.133 57.1413 450.244 57.8477 450.244 58.6094V58.834C450.244 59.5957 450.133 60.3021 449.912 60.9531C449.691 61.6042 449.368 62.1738 448.945 62.6621C448.529 63.1439 448.024 63.5215 447.432 63.7949C446.846 64.0618 446.182 64.1953 445.439 64.1953C444.697 64.1953 444.03 64.0618 443.438 63.7949C442.845 63.5215 442.337 63.1439 441.914 62.6621C441.497 62.1738 441.178 61.6042 440.957 60.9531C440.736 60.3021 440.625 59.5957 440.625 58.834ZM442.432 58.6094V58.834C442.432 59.3613 442.493 59.8594 442.617 60.3281C442.741 60.7904 442.926 61.2005 443.174 61.5586C443.428 61.9167 443.743 62.1999 444.121 62.4082C444.499 62.61 444.938 62.7109 445.439 62.7109C445.934 62.7109 446.367 62.61 446.738 62.4082C447.116 62.1999 447.428 61.9167 447.676 61.5586C447.923 61.2005 448.109 60.7904 448.232 60.3281C448.363 59.8594 448.428 59.3613 448.428 58.834V58.6094C448.428 58.0885 448.363 57.597 448.232 57.1348C448.109 56.666 447.92 56.2526 447.666 55.8945C447.419 55.5299 447.106 55.2435 446.729 55.0352C446.357 54.8268 445.921 54.7227 445.42 54.7227C444.925 54.7227 444.489 54.8268 444.111 55.0352C443.74 55.2435 443.428 55.5299 443.174 55.8945C442.926 56.2526 442.741 56.666 442.617 57.1348C442.493 57.597 442.432 58.0885 442.432 58.6094ZM459.17 61.9492V49H460.986V64H459.326L459.17 61.9492ZM452.061 58.834V58.6289C452.061 57.8216 452.158 57.0892 452.354 56.4316C452.555 55.7676 452.839 55.1979 453.203 54.7227C453.574 54.2474 454.014 53.8828 454.521 53.6289C455.036 53.3685 455.609 53.2383 456.24 53.2383C456.904 53.2383 457.484 53.3555 457.979 53.5898C458.48 53.8177 458.903 54.153 459.248 54.5957C459.6 55.0319 459.876 55.5592 460.078 56.1777C460.28 56.7962 460.42 57.4961 460.498 58.2773V59.1758C460.426 59.9505 460.286 60.6471 460.078 61.2656C459.876 61.8841 459.6 62.4115 459.248 62.8477C458.903 63.2839 458.48 63.6191 457.979 63.8535C457.477 64.0814 456.891 64.1953 456.221 64.1953C455.602 64.1953 455.036 64.0618 454.521 63.7949C454.014 63.528 453.574 63.1536 453.203 62.6719C452.839 62.1901 452.555 61.6237 452.354 60.9727C452.158 60.3151 452.061 59.6022 452.061 58.834ZM453.877 58.6289V58.834C453.877 59.3613 453.929 59.8561 454.033 60.3184C454.144 60.7806 454.313 61.1875 454.541 61.5391C454.769 61.8906 455.059 62.1673 455.41 62.3691C455.762 62.5645 456.182 62.6621 456.67 62.6621C457.269 62.6621 457.76 62.5352 458.145 62.2812C458.535 62.0273 458.848 61.6921 459.082 61.2754C459.316 60.8587 459.499 60.4062 459.629 59.918V57.5645C459.551 57.2064 459.437 56.8613 459.287 56.5293C459.144 56.1908 458.955 55.8913 458.721 55.6309C458.493 55.3639 458.21 55.1523 457.871 54.9961C457.539 54.8398 457.145 54.7617 456.689 54.7617C456.195 54.7617 455.768 54.8659 455.41 55.0742C455.059 55.276 454.769 55.556 454.541 55.9141C454.313 56.2656 454.144 56.6758 454.033 57.1445C453.929 57.6068 453.877 58.1016 453.877 58.6289ZM470.029 62.1934V56.7539C470.029 56.3372 469.945 55.9759 469.775 55.6699C469.613 55.3574 469.365 55.1165 469.033 54.9473C468.701 54.778 468.291 54.6934 467.803 54.6934C467.347 54.6934 466.947 54.7715 466.602 54.9277C466.263 55.084 465.996 55.2891 465.801 55.543C465.612 55.7969 465.518 56.0703 465.518 56.3633H463.711C463.711 55.9857 463.809 55.6113 464.004 55.2402C464.199 54.8691 464.479 54.5339 464.844 54.2344C465.215 53.9284 465.658 53.6875 466.172 53.5117C466.693 53.3294 467.272 53.2383 467.91 53.2383C468.678 53.2383 469.355 53.3685 469.941 53.6289C470.534 53.8893 470.996 54.2832 471.328 54.8105C471.667 55.3314 471.836 55.9857 471.836 56.7734V61.6953C471.836 62.0469 471.865 62.4212 471.924 62.8184C471.989 63.2155 472.083 63.5573 472.207 63.8438V64H470.322C470.231 63.7917 470.16 63.515 470.107 63.1699C470.055 62.8184 470.029 62.4928 470.029 62.1934ZM470.342 57.5938L470.361 58.8633H468.535C468.021 58.8633 467.562 58.9056 467.158 58.9902C466.755 59.0684 466.416 59.1888 466.143 59.3516C465.869 59.5143 465.661 59.7194 465.518 59.9668C465.374 60.2077 465.303 60.4909 465.303 60.8164C465.303 61.1484 465.378 61.4512 465.527 61.7246C465.677 61.998 465.902 62.2161 466.201 62.3789C466.507 62.5352 466.882 62.6133 467.324 62.6133C467.878 62.6133 468.366 62.4961 468.789 62.2617C469.212 62.0273 469.548 61.7409 469.795 61.4023C470.049 61.0638 470.186 60.735 470.205 60.416L470.977 61.2852C470.931 61.5586 470.807 61.8613 470.605 62.1934C470.404 62.5254 470.133 62.8444 469.795 63.1504C469.463 63.4499 469.066 63.7005 468.604 63.9023C468.148 64.0977 467.633 64.1953 467.061 64.1953C466.344 64.1953 465.716 64.0553 465.176 63.7754C464.642 63.4954 464.225 63.1211 463.926 62.6523C463.633 62.1771 463.486 61.6465 463.486 61.0605C463.486 60.4941 463.597 59.9961 463.818 59.5664C464.04 59.1302 464.359 58.7689 464.775 58.4824C465.192 58.1895 465.693 57.9681 466.279 57.8184C466.865 57.6686 467.52 57.5938 468.242 57.5938H470.342ZM476.484 55.0938V64H474.678V53.4336H476.436L476.484 55.0938ZM479.785 53.375L479.775 55.0547C479.626 55.0221 479.482 55.0026 479.346 54.9961C479.215 54.9831 479.066 54.9766 478.896 54.9766C478.48 54.9766 478.112 55.0417 477.793 55.1719C477.474 55.3021 477.204 55.4844 476.982 55.7188C476.761 55.9531 476.585 56.2331 476.455 56.5586C476.331 56.8776 476.25 57.2292 476.211 57.6133L475.703 57.9062C475.703 57.2682 475.765 56.6693 475.889 56.1094C476.019 55.5495 476.217 55.0547 476.484 54.625C476.751 54.1888 477.09 53.8503 477.5 53.6094C477.917 53.362 478.411 53.2383 478.984 53.2383C479.115 53.2383 479.264 53.2546 479.434 53.2871C479.603 53.3132 479.72 53.3424 479.785 53.375ZM480.273 63.043C480.273 62.737 480.368 62.4798 480.557 62.2715C480.752 62.0566 481.032 61.9492 481.396 61.9492C481.761 61.9492 482.038 62.0566 482.227 62.2715C482.422 62.4798 482.52 62.737 482.52 63.043C482.52 63.3424 482.422 63.5964 482.227 63.8047C482.038 64.013 481.761 64.1172 481.396 64.1172C481.032 64.1172 480.752 64.013 480.557 63.8047C480.368 63.5964 480.273 63.3424 480.273 63.043Z" fill="#C6ADFF"/>
<path d="M236.172 24.9414V8.86719H241.797V30H236.504L236.172 24.9414ZM236.797 20.6055L238.457 20.5664C238.457 21.9727 238.294 23.2812 237.969 24.4922C237.643 25.6901 237.155 26.7318 236.504 27.6172C235.853 28.4896 235.033 29.1732 234.043 29.668C233.053 30.1497 231.888 30.3906 230.547 30.3906C229.518 30.3906 228.568 30.2474 227.695 29.9609C226.836 29.6615 226.094 29.1992 225.469 28.5742C224.857 27.9362 224.375 27.1224 224.023 26.1328C223.685 25.1302 223.516 23.9258 223.516 22.5195V8.86719H229.141V22.5586C229.141 23.1836 229.212 23.7109 229.355 24.1406C229.512 24.5703 229.727 24.9219 230 25.1953C230.273 25.4688 230.592 25.6641 230.957 25.7812C231.335 25.8984 231.751 25.957 232.207 25.957C233.366 25.957 234.277 25.7227 234.941 25.2539C235.618 24.7852 236.094 24.1471 236.367 23.3398C236.654 22.5195 236.797 21.6081 236.797 20.6055ZM251.719 13.2422V30H246.074V8.86719H251.367L251.719 13.2422ZM250.938 18.6914H249.375C249.375 17.2201 249.551 15.8659 249.902 14.6289C250.267 13.3789 250.794 12.2982 251.484 11.3867C252.188 10.4622 253.053 9.74609 254.082 9.23828C255.111 8.73047 256.302 8.47656 257.656 8.47656C258.594 8.47656 259.453 8.61979 260.234 8.90625C261.016 9.17969 261.686 9.61589 262.246 10.2148C262.819 10.8008 263.262 11.569 263.574 12.5195C263.887 13.457 264.043 14.5833 264.043 15.8984V30H258.418V16.5234C258.418 15.5599 258.288 14.8177 258.027 14.2969C257.767 13.776 257.396 13.4115 256.914 13.2031C256.445 12.9948 255.879 12.8906 255.215 12.8906C254.486 12.8906 253.848 13.0404 253.301 13.3398C252.767 13.6393 252.324 14.056 251.973 14.5898C251.621 15.1107 251.361 15.7227 251.191 16.4258C251.022 17.1289 250.938 17.8841 250.938 18.6914ZM263.516 18.0469L261.504 18.3008C261.504 16.9206 261.673 15.638 262.012 14.4531C262.363 13.2682 262.878 12.2266 263.555 11.3281C264.245 10.4297 265.098 9.73307 266.113 9.23828C267.129 8.73047 268.301 8.47656 269.629 8.47656C270.645 8.47656 271.569 8.6263 272.402 8.92578C273.236 9.21224 273.945 9.67448 274.531 10.3125C275.13 10.9375 275.586 11.7578 275.898 12.7734C276.224 13.7891 276.387 15.0326 276.387 16.5039V30H270.742V16.5039C270.742 15.5273 270.612 14.7852 270.352 14.2773C270.104 13.7565 269.74 13.3984 269.258 13.2031C268.789 12.9948 268.229 12.8906 267.578 12.8906C266.901 12.8906 266.309 13.0273 265.801 13.3008C265.293 13.5612 264.87 13.9258 264.531 14.3945C264.193 14.8633 263.939 15.4102 263.77 16.0352C263.6 16.6471 263.516 17.3177 263.516 18.0469ZM292.148 25.2344V15.8203C292.148 15.1432 292.038 14.5638 291.816 14.082C291.595 13.5872 291.25 13.2031 290.781 12.9297C290.326 12.6562 289.733 12.5195 289.004 12.5195C288.379 12.5195 287.839 12.6302 287.383 12.8516C286.927 13.0599 286.576 13.3659 286.328 13.7695C286.081 14.1602 285.957 14.6224 285.957 15.1562H280.332C280.332 14.2578 280.54 13.4049 280.957 12.5977C281.374 11.7904 281.979 11.0807 282.773 10.4688C283.568 9.84375 284.512 9.35547 285.605 9.00391C286.712 8.65234 287.949 8.47656 289.316 8.47656C290.957 8.47656 292.415 8.75 293.691 9.29688C294.967 9.84375 295.97 10.6641 296.699 11.7578C297.441 12.8516 297.812 14.2188 297.812 15.8594V24.9023C297.812 26.0612 297.884 27.0117 298.027 27.7539C298.171 28.4831 298.379 29.1211 298.652 29.668V30H292.969C292.695 29.4271 292.487 28.7109 292.344 27.8516C292.214 26.9792 292.148 26.1068 292.148 25.2344ZM292.891 17.1289L292.93 20.3125H289.785C289.043 20.3125 288.398 20.3971 287.852 20.5664C287.305 20.7357 286.855 20.9766 286.504 21.2891C286.152 21.5885 285.892 21.9401 285.723 22.3438C285.566 22.7474 285.488 23.1901 285.488 23.6719C285.488 24.1536 285.599 24.5898 285.82 24.9805C286.042 25.3581 286.361 25.6576 286.777 25.8789C287.194 26.0872 287.682 26.1914 288.242 26.1914C289.089 26.1914 289.824 26.0221 290.449 25.6836C291.074 25.3451 291.556 24.9284 291.895 24.4336C292.246 23.9388 292.428 23.4701 292.441 23.0273L293.926 25.4102C293.717 25.944 293.431 26.4974 293.066 27.0703C292.715 27.6432 292.266 28.1836 291.719 28.6914C291.172 29.1862 290.514 29.5964 289.746 29.9219C288.978 30.2344 288.066 30.3906 287.012 30.3906C285.671 30.3906 284.453 30.1237 283.359 29.5898C282.279 29.043 281.419 28.2943 280.781 27.3438C280.156 26.3802 279.844 25.2865 279.844 24.0625C279.844 22.9557 280.052 21.9727 280.469 21.1133C280.885 20.2539 281.497 19.5312 282.305 18.9453C283.125 18.3464 284.147 17.8971 285.371 17.5977C286.595 17.2852 288.014 17.1289 289.629 17.1289H292.891ZM320.84 25.9961C321.53 25.9961 322.142 25.8659 322.676 25.6055C323.21 25.332 323.626 24.9544 323.926 24.4727C324.238 23.9779 324.401 23.3984 324.414 22.7344H329.707C329.694 24.2188 329.297 25.5404 328.516 26.6992C327.734 27.8451 326.686 28.75 325.371 29.4141C324.056 30.0651 322.585 30.3906 320.957 30.3906C319.316 30.3906 317.884 30.1172 316.66 29.5703C315.449 29.0234 314.44 28.2682 313.633 27.3047C312.826 26.3281 312.22 25.1953 311.816 23.9062C311.413 22.6042 311.211 21.2109 311.211 19.7266V19.1602C311.211 17.6628 311.413 16.2695 311.816 14.9805C312.22 13.6784 312.826 12.5456 313.633 11.582C314.44 10.6055 315.449 9.84375 316.66 9.29688C317.871 8.75 319.29 8.47656 320.918 8.47656C322.65 8.47656 324.167 8.80859 325.469 9.47266C326.784 10.1367 327.812 11.0872 328.555 12.3242C329.31 13.5482 329.694 15 329.707 16.6797H324.414C324.401 15.9766 324.251 15.3385 323.965 14.7656C323.691 14.1927 323.288 13.737 322.754 13.3984C322.233 13.0469 321.589 12.8711 320.82 12.8711C320 12.8711 319.329 13.0469 318.809 13.3984C318.288 13.737 317.884 14.2057 317.598 14.8047C317.311 15.3906 317.109 16.0612 316.992 16.8164C316.888 17.5586 316.836 18.3398 316.836 19.1602V19.7266C316.836 20.5469 316.888 21.3346 316.992 22.0898C317.096 22.8451 317.292 23.5156 317.578 24.1016C317.878 24.6875 318.288 25.1497 318.809 25.4883C319.329 25.8268 320.007 25.9961 320.84 25.9961ZM344.375 25.2344V15.8203C344.375 15.1432 344.264 14.5638 344.043 14.082C343.822 13.5872 343.477 13.2031 343.008 12.9297C342.552 12.6562 341.96 12.5195 341.23 12.5195C340.605 12.5195 340.065 12.6302 339.609 12.8516C339.154 13.0599 338.802 13.3659 338.555 13.7695C338.307 14.1602 338.184 14.6224 338.184 15.1562H332.559C332.559 14.2578 332.767 13.4049 333.184 12.5977C333.6 11.7904 334.206 11.0807 335 10.4688C335.794 9.84375 336.738 9.35547 337.832 9.00391C338.939 8.65234 340.176 8.47656 341.543 8.47656C343.184 8.47656 344.642 8.75 345.918 9.29688C347.194 9.84375 348.197 10.6641 348.926 11.7578C349.668 12.8516 350.039 14.2188 350.039 15.8594V24.9023C350.039 26.0612 350.111 27.0117 350.254 27.7539C350.397 28.4831 350.605 29.1211 350.879 29.668V30H345.195C344.922 29.4271 344.714 28.7109 344.57 27.8516C344.44 26.9792 344.375 26.1068 344.375 25.2344ZM345.117 17.1289L345.156 20.3125H342.012C341.27 20.3125 340.625 20.3971 340.078 20.5664C339.531 20.7357 339.082 20.9766 338.73 21.2891C338.379 21.5885 338.118 21.9401 337.949 22.3438C337.793 22.7474 337.715 23.1901 337.715 23.6719C337.715 24.1536 337.826 24.5898 338.047 24.9805C338.268 25.3581 338.587 25.6576 339.004 25.8789C339.421 26.0872 339.909 26.1914 340.469 26.1914C341.315 26.1914 342.051 26.0221 342.676 25.6836C343.301 25.3451 343.783 24.9284 344.121 24.4336C344.473 23.9388 344.655 23.4701 344.668 23.0273L346.152 25.4102C345.944 25.944 345.658 26.4974 345.293 27.0703C344.941 27.6432 344.492 28.1836 343.945 28.6914C343.398 29.1862 342.741 29.5964 341.973 29.9219C341.204 30.2344 340.293 30.3906 339.238 30.3906C337.897 30.3906 336.68 30.1237 335.586 29.5898C334.505 29.043 333.646 28.2943 333.008 27.3438C332.383 26.3802 332.07 25.2865 332.07 24.0625C332.07 22.9557 332.279 21.9727 332.695 21.1133C333.112 20.2539 333.724 19.5312 334.531 18.9453C335.352 18.3464 336.374 17.8971 337.598 17.5977C338.822 17.2852 340.241 17.1289 341.855 17.1289H345.117ZM360.312 0V30H354.668V0H360.312ZM373.691 25.9961C374.382 25.9961 374.993 25.8659 375.527 25.6055C376.061 25.332 376.478 24.9544 376.777 24.4727C377.09 23.9779 377.253 23.3984 377.266 22.7344H382.559C382.546 24.2188 382.148 25.5404 381.367 26.6992C380.586 27.8451 379.538 28.75 378.223 29.4141C376.908 30.0651 375.436 30.3906 373.809 30.3906C372.168 30.3906 370.736 30.1172 369.512 29.5703C368.301 29.0234 367.292 28.2682 366.484 27.3047C365.677 26.3281 365.072 25.1953 364.668 23.9062C364.264 22.6042 364.062 21.2109 364.062 19.7266V19.1602C364.062 17.6628 364.264 16.2695 364.668 14.9805C365.072 13.6784 365.677 12.5456 366.484 11.582C367.292 10.6055 368.301 9.84375 369.512 9.29688C370.723 8.75 372.142 8.47656 373.77 8.47656C375.501 8.47656 377.018 8.80859 378.32 9.47266C379.635 10.1367 380.664 11.0872 381.406 12.3242C382.161 13.5482 382.546 15 382.559 16.6797H377.266C377.253 15.9766 377.103 15.3385 376.816 14.7656C376.543 14.1927 376.139 13.737 375.605 13.3984C375.085 13.0469 374.44 12.8711 373.672 12.8711C372.852 12.8711 372.181 13.0469 371.66 13.3984C371.139 13.737 370.736 14.2057 370.449 14.8047C370.163 15.3906 369.961 16.0612 369.844 16.8164C369.74 17.5586 369.688 18.3398 369.688 19.1602V19.7266C369.688 20.5469 369.74 21.3346 369.844 22.0898C369.948 22.8451 370.143 23.5156 370.43 24.1016C370.729 24.6875 371.139 25.1497 371.66 25.4883C372.181 25.8268 372.858 25.9961 373.691 25.9961ZM398.32 24.9414V8.86719H403.945V30H398.652L398.32 24.9414ZM398.945 20.6055L400.605 20.5664C400.605 21.9727 400.443 23.2812 400.117 24.4922C399.792 25.6901 399.303 26.7318 398.652 27.6172C398.001 28.4896 397.181 29.1732 396.191 29.668C395.202 30.1497 394.036 30.3906 392.695 30.3906C391.667 30.3906 390.716 30.2474 389.844 29.9609C388.984 29.6615 388.242 29.1992 387.617 28.5742C387.005 27.9362 386.523 27.1224 386.172 26.1328C385.833 25.1302 385.664 23.9258 385.664 22.5195V8.86719H391.289V22.5586C391.289 23.1836 391.361 23.7109 391.504 24.1406C391.66 24.5703 391.875 24.9219 392.148 25.1953C392.422 25.4688 392.741 25.6641 393.105 25.7812C393.483 25.8984 393.9 25.957 394.355 25.957C395.514 25.957 396.426 25.7227 397.09 25.2539C397.767 24.7852 398.242 24.1471 398.516 23.3398C398.802 22.5195 398.945 21.6081 398.945 20.6055ZM414.18 0V30H408.535V0H414.18ZM430.234 25.2344V15.8203C430.234 15.1432 430.124 14.5638 429.902 14.082C429.681 13.5872 429.336 13.2031 428.867 12.9297C428.411 12.6562 427.819 12.5195 427.09 12.5195C426.465 12.5195 425.924 12.6302 425.469 12.8516C425.013 13.0599 424.661 13.3659 424.414 13.7695C424.167 14.1602 424.043 14.6224 424.043 15.1562H418.418C418.418 14.2578 418.626 13.4049 419.043 12.5977C419.46 11.7904 420.065 11.0807 420.859 10.4688C421.654 9.84375 422.598 9.35547 423.691 9.00391C424.798 8.65234 426.035 8.47656 427.402 8.47656C429.043 8.47656 430.501 8.75 431.777 9.29688C433.053 9.84375 434.056 10.6641 434.785 11.7578C435.527 12.8516 435.898 14.2188 435.898 15.8594V24.9023C435.898 26.0612 435.97 27.0117 436.113 27.7539C436.257 28.4831 436.465 29.1211 436.738 29.668V30H431.055C430.781 29.4271 430.573 28.7109 430.43 27.8516C430.299 26.9792 430.234 26.1068 430.234 25.2344ZM430.977 17.1289L431.016 20.3125H427.871C427.129 20.3125 426.484 20.3971 425.938 20.5664C425.391 20.7357 424.941 20.9766 424.59 21.2891C424.238 21.5885 423.978 21.9401 423.809 22.3438C423.652 22.7474 423.574 23.1901 423.574 23.6719C423.574 24.1536 423.685 24.5898 423.906 24.9805C424.128 25.3581 424.447 25.6576 424.863 25.8789C425.28 26.0872 425.768 26.1914 426.328 26.1914C427.174 26.1914 427.91 26.0221 428.535 25.6836C429.16 25.3451 429.642 24.9284 429.98 24.4336C430.332 23.9388 430.514 23.4701 430.527 23.0273L432.012 25.4102C431.803 25.944 431.517 26.4974 431.152 27.0703C430.801 27.6432 430.352 28.1836 429.805 28.6914C429.258 29.1862 428.6 29.5964 427.832 29.9219C427.064 30.2344 426.152 30.3906 425.098 30.3906C423.757 30.3906 422.539 30.1237 421.445 29.5898C420.365 29.043 419.505 28.2943 418.867 27.3438C418.242 26.3802 417.93 25.2865 417.93 24.0625C417.93 22.9557 418.138 21.9727 418.555 21.1133C418.971 20.2539 419.583 19.5312 420.391 18.9453C421.211 18.3464 422.233 17.8971 423.457 17.5977C424.681 17.2852 426.1 17.1289 427.715 17.1289H430.977ZM452.715 25.3906V0H458.379V30H453.281L452.715 25.3906ZM439.355 19.6875V19.2773C439.355 17.6628 439.538 16.1979 439.902 14.8828C440.267 13.5547 440.801 12.4154 441.504 11.4648C442.207 10.5143 443.073 9.77865 444.102 9.25781C445.13 8.73698 446.302 8.47656 447.617 8.47656C448.854 8.47656 449.935 8.73698 450.859 9.25781C451.797 9.77865 452.591 10.5208 453.242 11.4844C453.906 12.4349 454.44 13.5612 454.844 14.8633C455.247 16.1523 455.54 17.5651 455.723 19.1016V20C455.54 21.4714 455.247 22.8385 454.844 24.1016C454.44 25.3646 453.906 26.4714 453.242 27.4219C452.591 28.3594 451.797 29.0885 450.859 29.6094C449.922 30.1302 448.828 30.3906 447.578 30.3906C446.263 30.3906 445.091 30.1237 444.062 29.5898C443.047 29.056 442.188 28.3073 441.484 27.3438C440.794 26.3802 440.267 25.2474 439.902 23.9453C439.538 22.6432 439.355 21.224 439.355 19.6875ZM444.98 19.2773V19.6875C444.98 20.5599 445.046 21.3737 445.176 22.1289C445.319 22.8841 445.547 23.5547 445.859 24.1406C446.185 24.7135 446.602 25.1628 447.109 25.4883C447.63 25.8008 448.262 25.957 449.004 25.957C449.967 25.957 450.762 25.7422 451.387 25.3125C452.012 24.8698 452.487 24.2643 452.812 23.4961C453.151 22.7279 453.346 21.8424 453.398 20.8398V18.2812C453.359 17.4609 453.242 16.7253 453.047 16.0742C452.865 15.4102 452.591 14.8438 452.227 14.375C451.875 13.9062 451.432 13.5417 450.898 13.2812C450.378 13.0208 449.759 12.8906 449.043 12.8906C448.314 12.8906 447.689 13.0599 447.168 13.3984C446.647 13.724 446.224 14.1732 445.898 14.7461C445.586 15.319 445.352 15.9961 445.195 16.7773C445.052 17.5456 444.98 18.3789 444.98 19.2773ZM461.875 19.6484V19.2383C461.875 17.6888 462.096 16.263 462.539 14.9609C462.982 13.6458 463.626 12.5065 464.473 11.543C465.319 10.5794 466.361 9.83073 467.598 9.29688C468.835 8.75 470.254 8.47656 471.855 8.47656C473.457 8.47656 474.883 8.75 476.133 9.29688C477.383 9.83073 478.431 10.5794 479.277 11.543C480.137 12.5065 480.788 13.6458 481.23 14.9609C481.673 16.263 481.895 17.6888 481.895 19.2383V19.6484C481.895 21.1849 481.673 22.6107 481.23 23.9258C480.788 25.2279 480.137 26.3672 479.277 27.3438C478.431 28.3073 477.389 29.056 476.152 29.5898C474.915 30.1237 473.496 30.3906 471.895 30.3906C470.293 30.3906 468.867 30.1237 467.617 29.5898C466.38 29.056 465.332 28.3073 464.473 27.3438C463.626 26.3672 462.982 25.2279 462.539 23.9258C462.096 22.6107 461.875 21.1849 461.875 19.6484ZM467.5 19.2383V19.6484C467.5 20.5339 467.578 21.3607 467.734 22.1289C467.891 22.8971 468.138 23.5742 468.477 24.1602C468.828 24.7331 469.284 25.1823 469.844 25.5078C470.404 25.8333 471.087 25.9961 471.895 25.9961C472.676 25.9961 473.346 25.8333 473.906 25.5078C474.466 25.1823 474.915 24.7331 475.254 24.1602C475.592 23.5742 475.84 22.8971 475.996 22.1289C476.165 21.3607 476.25 20.5339 476.25 19.6484V19.2383C476.25 18.3789 476.165 17.5716 475.996 16.8164C475.84 16.0482 475.586 15.3711 475.234 14.7852C474.896 14.1862 474.447 13.7174 473.887 13.3789C473.327 13.0404 472.65 12.8711 471.855 12.8711C471.061 12.8711 470.384 13.0404 469.824 13.3789C469.277 13.7174 468.828 14.1862 468.477 14.7852C468.138 15.3711 467.891 16.0482 467.734 16.8164C467.578 17.5716 467.5 18.3789 467.5 19.2383ZM490.977 13.4766V30H485.352V8.86719H490.645L490.977 13.4766ZM497.344 8.73047L497.246 13.9453C496.973 13.9062 496.641 13.8737 496.25 13.8477C495.872 13.8086 495.527 13.7891 495.215 13.7891C494.421 13.7891 493.73 13.8932 493.145 14.1016C492.572 14.2969 492.09 14.5898 491.699 14.9805C491.322 15.3711 491.035 15.8464 490.84 16.4062C490.658 16.9661 490.553 17.6042 490.527 18.3203L489.395 17.9688C489.395 16.6016 489.531 15.3451 489.805 14.1992C490.078 13.0404 490.475 12.0312 490.996 11.1719C491.53 10.3125 492.181 9.64844 492.949 9.17969C493.717 8.71094 494.596 8.47656 495.586 8.47656C495.898 8.47656 496.217 8.5026 496.543 8.55469C496.868 8.59375 497.135 8.65234 497.344 8.73047ZM510.742 25.2344V15.8203C510.742 15.1432 510.632 14.5638 510.41 14.082C510.189 13.5872 509.844 13.2031 509.375 12.9297C508.919 12.6562 508.327 12.5195 507.598 12.5195C506.973 12.5195 506.432 12.6302 505.977 12.8516C505.521 13.0599 505.169 13.3659 504.922 13.7695C504.674 14.1602 504.551 14.6224 504.551 15.1562H498.926C498.926 14.2578 499.134 13.4049 499.551 12.5977C499.967 11.7904 500.573 11.0807 501.367 10.4688C502.161 9.84375 503.105 9.35547 504.199 9.00391C505.306 8.65234 506.543 8.47656 507.91 8.47656C509.551 8.47656 511.009 8.75 512.285 9.29688C513.561 9.84375 514.564 10.6641 515.293 11.7578C516.035 12.8516 516.406 14.2188 516.406 15.8594V24.9023C516.406 26.0612 516.478 27.0117 516.621 27.7539C516.764 28.4831 516.973 29.1211 517.246 29.668V30H511.562C511.289 29.4271 511.081 28.7109 510.938 27.8516C510.807 26.9792 510.742 26.1068 510.742 25.2344ZM511.484 17.1289L511.523 20.3125H508.379C507.637 20.3125 506.992 20.3971 506.445 20.5664C505.898 20.7357 505.449 20.9766 505.098 21.2891C504.746 21.5885 504.486 21.9401 504.316 22.3438C504.16 22.7474 504.082 23.1901 504.082 23.6719C504.082 24.1536 504.193 24.5898 504.414 24.9805C504.635 25.3581 504.954 25.6576 505.371 25.8789C505.788 26.0872 506.276 26.1914 506.836 26.1914C507.682 26.1914 508.418 26.0221 509.043 25.6836C509.668 25.3451 510.15 24.9284 510.488 24.4336C510.84 23.9388 511.022 23.4701 511.035 23.0273L512.52 25.4102C512.311 25.944 512.025 26.4974 511.66 27.0703C511.309 27.6432 510.859 28.1836 510.312 28.6914C509.766 29.1862 509.108 29.5964 508.34 29.9219C507.572 30.2344 506.66 30.3906 505.605 30.3906C504.264 30.3906 503.047 30.1237 501.953 29.5898C500.872 29.043 500.013 28.2943 499.375 27.3438C498.75 26.3802 498.438 25.2865 498.438 24.0625C498.438 22.9557 498.646 21.9727 499.062 21.1133C499.479 20.2539 500.091 19.5312 500.898 18.9453C501.719 18.3464 502.741 17.8971 503.965 17.5977C505.189 17.2852 506.608 17.1289 508.223 17.1289H511.484ZM5.76172 64.1953C5.02604 64.1953 4.35872 64.0716 3.75977 63.8242C3.16732 63.5703 2.65625 63.2155 2.22656 62.7598C1.80339 62.304 1.47786 61.7637 1.25 61.1387C1.02214 60.5137 0.908203 59.8301 0.908203 59.0879V58.6777C0.908203 57.8184 1.03516 57.0534 1.28906 56.3828C1.54297 55.7057 1.88802 55.1328 2.32422 54.6641C2.76042 54.1953 3.25521 53.8405 3.80859 53.5996C4.36198 53.3587 4.9349 53.2383 5.52734 53.2383C6.28255 53.2383 6.93359 53.3685 7.48047 53.6289C8.03385 53.8893 8.48633 54.2539 8.83789 54.7227C9.18945 55.1849 9.44987 55.7318 9.61914 56.3633C9.78841 56.9883 9.87305 57.6719 9.87305 58.4141V59.2246H1.98242V57.75H8.06641V57.6133C8.04036 57.1445 7.94271 56.6888 7.77344 56.2461C7.61068 55.8034 7.35026 55.4388 6.99219 55.1523C6.63411 54.8659 6.14583 54.7227 5.52734 54.7227C5.11719 54.7227 4.73958 54.8105 4.39453 54.9863C4.04948 55.1556 3.75326 55.4095 3.50586 55.748C3.25846 56.0866 3.06641 56.5 2.92969 56.9883C2.79297 57.4766 2.72461 58.0397 2.72461 58.6777V59.0879C2.72461 59.5892 2.79297 60.0612 2.92969 60.5039C3.07292 60.9401 3.27799 61.3242 3.54492 61.6562C3.81836 61.9883 4.14714 62.2487 4.53125 62.4375C4.92188 62.6263 5.36458 62.7207 5.85938 62.7207C6.4974 62.7207 7.03776 62.5905 7.48047 62.3301C7.92318 62.0697 8.31055 61.7214 8.64258 61.2852L9.73633 62.1543C9.50846 62.4993 9.21875 62.8281 8.86719 63.1406C8.51562 63.4531 8.08268 63.707 7.56836 63.9023C7.06055 64.0977 6.45833 64.1953 5.76172 64.1953ZM18.75 55.4648V68.0625H16.9336V53.4336H18.5938L18.75 55.4648ZM25.8691 58.6289V58.834C25.8691 59.6022 25.778 60.3151 25.5957 60.9727C25.4134 61.6237 25.1465 62.1901 24.7949 62.6719C24.4499 63.1536 24.0234 63.528 23.5156 63.7949C23.0078 64.0618 22.4251 64.1953 21.7676 64.1953C21.097 64.1953 20.5046 64.0846 19.9902 63.8633C19.4759 63.6419 19.0397 63.3197 18.6816 62.8965C18.3236 62.4733 18.0371 61.9655 17.8223 61.373C17.6139 60.7806 17.4707 60.1133 17.3926 59.3711V58.2773C17.4707 57.4961 17.6172 56.7962 17.832 56.1777C18.0469 55.5592 18.3301 55.0319 18.6816 54.5957C19.0397 54.153 19.4727 53.8177 19.9805 53.5898C20.4883 53.3555 21.0742 53.2383 21.7383 53.2383C22.4023 53.2383 22.9915 53.3685 23.5059 53.6289C24.0202 53.8828 24.4531 54.2474 24.8047 54.7227C25.1562 55.1979 25.4199 55.7676 25.5957 56.4316C25.778 57.0892 25.8691 57.8216 25.8691 58.6289ZM24.0527 58.834V58.6289C24.0527 58.1016 23.9974 57.6068 23.8867 57.1445C23.776 56.6758 23.6035 56.2656 23.3691 55.9141C23.1413 55.556 22.8483 55.276 22.4902 55.0742C22.1322 54.8659 21.7057 54.7617 21.2109 54.7617C20.7552 54.7617 20.3581 54.8398 20.0195 54.9961C19.6875 55.1523 19.4043 55.3639 19.1699 55.6309C18.9355 55.8913 18.7435 56.1908 18.5938 56.5293C18.4505 56.8613 18.3431 57.2064 18.2715 57.5645V60.0938C18.4017 60.5495 18.584 60.9792 18.8184 61.3828C19.0527 61.7799 19.3652 62.1022 19.7559 62.3496C20.1465 62.5905 20.638 62.7109 21.2305 62.7109C21.7188 62.7109 22.1387 62.61 22.4902 62.4082C22.8483 62.1999 23.1413 61.9167 23.3691 61.5586C23.6035 61.2005 23.776 60.7904 23.8867 60.3281C23.9974 59.8594 24.0527 59.3613 24.0527 58.834ZM27.6953 58.834V58.6094C27.6953 57.8477 27.806 57.1413 28.0273 56.4902C28.2487 55.8327 28.5677 55.263 28.9844 54.7812C29.401 54.293 29.9056 53.9154 30.498 53.6484C31.0905 53.375 31.7546 53.2383 32.4902 53.2383C33.2324 53.2383 33.8997 53.375 34.4922 53.6484C35.0911 53.9154 35.599 54.293 36.0156 54.7812C36.4388 55.263 36.7611 55.8327 36.9824 56.4902C37.2038 57.1413 37.3145 57.8477 37.3145 58.6094V58.834C37.3145 59.5957 37.2038 60.3021 36.9824 60.9531C36.7611 61.6042 36.4388 62.1738 36.0156 62.6621C35.599 63.1439 35.0944 63.5215 34.502 63.7949C33.916 64.0618 33.252 64.1953 32.5098 64.1953C31.7676 64.1953 31.1003 64.0618 30.5078 63.7949C29.9154 63.5215 29.4076 63.1439 28.9844 62.6621C28.5677 62.1738 28.2487 61.6042 28.0273 60.9531C27.806 60.3021 27.6953 59.5957 27.6953 58.834ZM29.502 58.6094V58.834C29.502 59.3613 29.5638 59.8594 29.6875 60.3281C29.8112 60.7904 29.9967 61.2005 30.2441 61.5586C30.498 61.9167 30.8138 62.1999 31.1914 62.4082C31.569 62.61 32.0085 62.7109 32.5098 62.7109C33.0046 62.7109 33.4375 62.61 33.8086 62.4082C34.1862 62.1999 34.4987 61.9167 34.7461 61.5586C34.9935 61.2005 35.179 60.7904 35.3027 60.3281C35.4329 59.8594 35.498 59.3613 35.498 58.834V58.6094C35.498 58.0885 35.4329 57.597 35.3027 57.1348C35.179 56.666 34.9902 56.2526 34.7363 55.8945C34.4889 55.5299 34.1764 55.2435 33.7988 55.0352C33.4277 54.8268 32.9915 54.7227 32.4902 54.7227C31.9954 54.7227 31.5592 54.8268 31.1816 55.0352C30.8105 55.2435 30.498 55.5299 30.2441 55.8945C29.9967 56.2526 29.8112 56.666 29.6875 57.1348C29.5638 57.597 29.502 58.0885 29.502 58.6094ZM45.7324 61.1973C45.7324 60.9368 45.6738 60.696 45.5566 60.4746C45.446 60.2467 45.2148 60.0417 44.8633 59.8594C44.5182 59.6706 43.9974 59.5078 43.3008 59.3711C42.7148 59.2474 42.1842 59.1009 41.709 58.9316C41.2402 58.7624 40.8398 58.5573 40.5078 58.3164C40.1823 58.0755 39.9316 57.7923 39.7559 57.4668C39.5801 57.1413 39.4922 56.7604 39.4922 56.3242C39.4922 55.9076 39.5833 55.5137 39.7656 55.1426C39.9544 54.7715 40.2181 54.4427 40.5566 54.1562C40.9017 53.8698 41.3151 53.6452 41.7969 53.4824C42.2786 53.3197 42.8158 53.2383 43.4082 53.2383C44.2546 53.2383 44.9772 53.388 45.5762 53.6875C46.1751 53.987 46.6341 54.3874 46.9531 54.8887C47.2721 55.3835 47.4316 55.9336 47.4316 56.5391H45.625C45.625 56.2461 45.5371 55.9629 45.3613 55.6895C45.1921 55.4095 44.9414 55.1784 44.6094 54.9961C44.2839 54.8138 43.8835 54.7227 43.4082 54.7227C42.9069 54.7227 42.5 54.8008 42.1875 54.957C41.8815 55.1068 41.6569 55.2988 41.5137 55.5332C41.377 55.7676 41.3086 56.015 41.3086 56.2754C41.3086 56.4707 41.3411 56.6465 41.4062 56.8027C41.4779 56.9525 41.6016 57.0924 41.7773 57.2227C41.9531 57.3464 42.2005 57.4635 42.5195 57.5742C42.8385 57.6849 43.2454 57.7956 43.7402 57.9062C44.6061 58.1016 45.319 58.3359 45.8789 58.6094C46.4388 58.8828 46.8555 59.2181 47.1289 59.6152C47.4023 60.0124 47.5391 60.4941 47.5391 61.0605C47.5391 61.5228 47.4414 61.946 47.2461 62.3301C47.0573 62.7142 46.7806 63.0462 46.416 63.3262C46.0579 63.5996 45.6283 63.8145 45.127 63.9707C44.6322 64.1204 44.0755 64.1953 43.457 64.1953C42.526 64.1953 41.7383 64.0293 41.0938 63.6973C40.4492 63.3652 39.9609 62.9355 39.6289 62.4082C39.2969 61.8809 39.1309 61.3242 39.1309 60.7383H40.9473C40.9733 61.2331 41.1165 61.627 41.377 61.9199C41.6374 62.2064 41.9564 62.4115 42.334 62.5352C42.7116 62.6523 43.0859 62.7109 43.457 62.7109C43.9518 62.7109 44.3652 62.6458 44.6973 62.5156C45.0358 62.3854 45.293 62.2064 45.4688 61.9785C45.6445 61.7507 45.7324 61.4902 45.7324 61.1973ZM54.3359 53.4336V54.8203H48.623V53.4336H54.3359ZM50.5566 50.8652H52.3633V61.3828C52.3633 61.7409 52.4186 62.0111 52.5293 62.1934C52.64 62.3757 52.7832 62.4961 52.959 62.5547C53.1348 62.6133 53.3236 62.6426 53.5254 62.6426C53.6751 62.6426 53.8314 62.6296 53.9941 62.6035C54.1634 62.571 54.2904 62.5449 54.375 62.5254L54.3848 64C54.2415 64.0456 54.0527 64.0879 53.8184 64.127C53.5905 64.1725 53.3138 64.1953 52.9883 64.1953C52.5456 64.1953 52.1387 64.1074 51.7676 63.9316C51.3965 63.7559 51.1003 63.4629 50.8789 63.0527C50.6641 62.6361 50.5566 62.0762 50.5566 61.373V50.8652ZM62.6855 62.1934V56.7539C62.6855 56.3372 62.6009 55.9759 62.4316 55.6699C62.2689 55.3574 62.0215 55.1165 61.6895 54.9473C61.3574 54.778 60.9473 54.6934 60.459 54.6934C60.0033 54.6934 59.6029 54.7715 59.2578 54.9277C58.9193 55.084 58.6523 55.2891 58.457 55.543C58.2682 55.7969 58.1738 56.0703 58.1738 56.3633H56.3672C56.3672 55.9857 56.4648 55.6113 56.6602 55.2402C56.8555 54.8691 57.1354 54.5339 57.5 54.2344C57.8711 53.9284 58.3138 53.6875 58.8281 53.5117C59.349 53.3294 59.9284 53.2383 60.5664 53.2383C61.3346 53.2383 62.0117 53.3685 62.5977 53.6289C63.1901 53.8893 63.6523 54.2832 63.9844 54.8105C64.3229 55.3314 64.4922 55.9857 64.4922 56.7734V61.6953C64.4922 62.0469 64.5215 62.4212 64.5801 62.8184C64.6452 63.2155 64.7396 63.5573 64.8633 63.8438V64H62.9785C62.8874 63.7917 62.8158 63.515 62.7637 63.1699C62.7116 62.8184 62.6855 62.4928 62.6855 62.1934ZM62.998 57.5938L63.0176 58.8633H61.1914C60.6771 58.8633 60.2181 58.9056 59.8145 58.9902C59.4108 59.0684 59.0723 59.1888 58.7988 59.3516C58.5254 59.5143 58.3171 59.7194 58.1738 59.9668C58.0306 60.2077 57.959 60.4909 57.959 60.8164C57.959 61.1484 58.0339 61.4512 58.1836 61.7246C58.3333 61.998 58.5579 62.2161 58.8574 62.3789C59.1634 62.5352 59.5378 62.6133 59.9805 62.6133C60.5339 62.6133 61.0221 62.4961 61.4453 62.2617C61.8685 62.0273 62.2038 61.7409 62.4512 61.4023C62.7051 61.0638 62.8418 60.735 62.8613 60.416L63.6328 61.2852C63.5872 61.5586 63.4635 61.8613 63.2617 62.1934C63.0599 62.5254 62.7897 62.8444 62.4512 63.1504C62.1191 63.4499 61.722 63.7005 61.2598 63.9023C60.804 64.0977 60.2897 64.1953 59.7168 64.1953C59.0007 64.1953 58.3724 64.0553 57.832 63.7754C57.2982 63.4954 56.8815 63.1211 56.582 62.6523C56.2891 62.1771 56.1426 61.6465 56.1426 61.0605C56.1426 60.4941 56.2533 59.9961 56.4746 59.5664C56.696 59.1302 57.015 58.7689 57.4316 58.4824C57.8483 58.1895 58.3496 57.9681 58.9355 57.8184C59.5215 57.6686 60.1758 57.5938 60.8984 57.5938H62.998ZM69.1406 55.0938V64H67.334V53.4336H69.0918L69.1406 55.0938ZM72.4414 53.375L72.4316 55.0547C72.2819 55.0221 72.1387 55.0026 72.002 54.9961C71.8717 54.9831 71.722 54.9766 71.5527 54.9766C71.1361 54.9766 70.7682 55.0417 70.4492 55.1719C70.1302 55.3021 69.86 55.4844 69.6387 55.7188C69.4173 55.9531 69.2415 56.2331 69.1113 56.5586C68.9876 56.8776 68.9062 57.2292 68.8672 57.6133L68.3594 57.9062C68.3594 57.2682 68.4212 56.6693 68.5449 56.1094C68.6751 55.5495 68.8737 55.0547 69.1406 54.625C69.4076 54.1888 69.7461 53.8503 70.1562 53.6094C70.5729 53.362 71.0677 53.2383 71.6406 53.2383C71.7708 53.2383 71.9206 53.2546 72.0898 53.2871C72.2591 53.3132 72.3763 53.3424 72.4414 53.375ZM80.8789 55.6895V64H79.0723V53.4336H80.7812L80.8789 55.6895ZM80.4492 58.3164L79.6973 58.2871C79.7038 57.5645 79.8112 56.8971 80.0195 56.2852C80.2279 55.6667 80.5208 55.1296 80.8984 54.6738C81.276 54.2181 81.7253 53.8665 82.2461 53.6191C82.7734 53.3652 83.3561 53.2383 83.9941 53.2383C84.515 53.2383 84.9837 53.3099 85.4004 53.4531C85.8171 53.5898 86.1719 53.8112 86.4648 54.1172C86.7643 54.4232 86.9922 54.8203 87.1484 55.3086C87.3047 55.7904 87.3828 56.3796 87.3828 57.0762V64H85.5664V57.0566C85.5664 56.5033 85.485 56.0605 85.3223 55.7285C85.1595 55.39 84.9219 55.1458 84.6094 54.9961C84.2969 54.8398 83.9128 54.7617 83.457 54.7617C83.0078 54.7617 82.5977 54.8561 82.2266 55.0449C81.862 55.2337 81.5462 55.4941 81.2793 55.8262C81.0189 56.1582 80.8138 56.5391 80.6641 56.9688C80.5208 57.3919 80.4492 57.8411 80.4492 58.3164ZM96.3574 62.1934V56.7539C96.3574 56.3372 96.2728 55.9759 96.1035 55.6699C95.9408 55.3574 95.6934 55.1165 95.3613 54.9473C95.0293 54.778 94.6191 54.6934 94.1309 54.6934C93.6751 54.6934 93.2747 54.7715 92.9297 54.9277C92.5911 55.084 92.3242 55.2891 92.1289 55.543C91.9401 55.7969 91.8457 56.0703 91.8457 56.3633H90.0391C90.0391 55.9857 90.1367 55.6113 90.332 55.2402C90.5273 54.8691 90.8073 54.5339 91.1719 54.2344C91.543 53.9284 91.9857 53.6875 92.5 53.5117C93.0208 53.3294 93.6003 53.2383 94.2383 53.2383C95.0065 53.2383 95.6836 53.3685 96.2695 53.6289C96.862 53.8893 97.3242 54.2832 97.6562 54.8105C97.9948 55.3314 98.1641 55.9857 98.1641 56.7734V61.6953C98.1641 62.0469 98.1934 62.4212 98.252 62.8184C98.3171 63.2155 98.4115 63.5573 98.5352 63.8438V64H96.6504C96.5592 63.7917 96.4876 63.515 96.4355 63.1699C96.3835 62.8184 96.3574 62.4928 96.3574 62.1934ZM96.6699 57.5938L96.6895 58.8633H94.8633C94.349 58.8633 93.89 58.9056 93.4863 58.9902C93.0827 59.0684 92.7441 59.1888 92.4707 59.3516C92.1973 59.5143 91.9889 59.7194 91.8457 59.9668C91.7025 60.2077 91.6309 60.4909 91.6309 60.8164C91.6309 61.1484 91.7057 61.4512 91.8555 61.7246C92.0052 61.998 92.2298 62.2161 92.5293 62.3789C92.8353 62.5352 93.2096 62.6133 93.6523 62.6133C94.2057 62.6133 94.694 62.4961 95.1172 62.2617C95.5404 62.0273 95.8757 61.7409 96.123 61.4023C96.377 61.0638 96.5137 60.735 96.5332 60.416L97.3047 61.2852C97.2591 61.5586 97.1354 61.8613 96.9336 62.1934C96.7318 62.5254 96.4616 62.8444 96.123 63.1504C95.791 63.4499 95.3939 63.7005 94.9316 63.9023C94.4759 64.0977 93.9616 64.1953 93.3887 64.1953C92.6725 64.1953 92.0443 64.0553 91.5039 63.7754C90.9701 63.4954 90.5534 63.1211 90.2539 62.6523C89.9609 62.1771 89.8145 61.6465 89.8145 61.0605C89.8145 60.4941 89.9251 59.9961 90.1465 59.5664C90.3678 59.1302 90.6868 58.7689 91.1035 58.4824C91.5202 58.1895 92.0215 57.9681 92.6074 57.8184C93.1934 57.6686 93.8477 57.5938 94.5703 57.5938H96.6699ZM107.158 61.1973C107.158 60.9368 107.1 60.696 106.982 60.4746C106.872 60.2467 106.641 60.0417 106.289 59.8594C105.944 59.6706 105.423 59.5078 104.727 59.3711C104.141 59.2474 103.61 59.1009 103.135 58.9316C102.666 58.7624 102.266 58.5573 101.934 58.3164C101.608 58.0755 101.357 57.7923 101.182 57.4668C101.006 57.1413 100.918 56.7604 100.918 56.3242C100.918 55.9076 101.009 55.5137 101.191 55.1426C101.38 54.7715 101.644 54.4427 101.982 54.1562C102.327 53.8698 102.741 53.6452 103.223 53.4824C103.704 53.3197 104.242 53.2383 104.834 53.2383C105.68 53.2383 106.403 53.388 107.002 53.6875C107.601 53.987 108.06 54.3874 108.379 54.8887C108.698 55.3835 108.857 55.9336 108.857 56.5391H107.051C107.051 56.2461 106.963 55.9629 106.787 55.6895C106.618 55.4095 106.367 55.1784 106.035 54.9961C105.71 54.8138 105.309 54.7227 104.834 54.7227C104.333 54.7227 103.926 54.8008 103.613 54.957C103.307 55.1068 103.083 55.2988 102.939 55.5332C102.803 55.7676 102.734 56.015 102.734 56.2754C102.734 56.4707 102.767 56.6465 102.832 56.8027C102.904 56.9525 103.027 57.0924 103.203 57.2227C103.379 57.3464 103.626 57.4635 103.945 57.5742C104.264 57.6849 104.671 57.7956 105.166 57.9062C106.032 58.1016 106.745 58.3359 107.305 58.6094C107.865 58.8828 108.281 59.2181 108.555 59.6152C108.828 60.0124 108.965 60.4941 108.965 61.0605C108.965 61.5228 108.867 61.946 108.672 62.3301C108.483 62.7142 108.206 63.0462 107.842 63.3262C107.484 63.5996 107.054 63.8145 106.553 63.9707C106.058 64.1204 105.501 64.1953 104.883 64.1953C103.952 64.1953 103.164 64.0293 102.52 63.6973C101.875 63.3652 101.387 62.9355 101.055 62.4082C100.723 61.8809 100.557 61.3242 100.557 60.7383H102.373C102.399 61.2331 102.542 61.627 102.803 61.9199C103.063 62.2064 103.382 62.4115 103.76 62.5352C104.137 62.6523 104.512 62.7109 104.883 62.7109C105.378 62.7109 105.791 62.6458 106.123 62.5156C106.462 62.3854 106.719 62.2064 106.895 61.9785C107.07 61.7507 107.158 61.4902 107.158 61.1973ZM118.105 55.0938V64H116.299V53.4336H118.057L118.105 55.0938ZM121.406 53.375L121.396 55.0547C121.247 55.0221 121.104 55.0026 120.967 54.9961C120.837 54.9831 120.687 54.9766 120.518 54.9766C120.101 54.9766 119.733 55.0417 119.414 55.1719C119.095 55.3021 118.825 55.4844 118.604 55.7188C118.382 55.9531 118.206 56.2331 118.076 56.5586C117.952 56.8776 117.871 57.2292 117.832 57.6133L117.324 57.9062C117.324 57.2682 117.386 56.6693 117.51 56.1094C117.64 55.5495 117.839 55.0547 118.105 54.625C118.372 54.1888 118.711 53.8503 119.121 53.6094C119.538 53.362 120.033 53.2383 120.605 53.2383C120.736 53.2383 120.885 53.2546 121.055 53.2871C121.224 53.3132 121.341 53.3424 121.406 53.375ZM127.266 64.1953C126.53 64.1953 125.863 64.0716 125.264 63.8242C124.671 63.5703 124.16 63.2155 123.73 62.7598C123.307 62.304 122.982 61.7637 122.754 61.1387C122.526 60.5137 122.412 59.8301 122.412 59.0879V58.6777C122.412 57.8184 122.539 57.0534 122.793 56.3828C123.047 55.7057 123.392 55.1328 123.828 54.6641C124.264 54.1953 124.759 53.8405 125.312 53.5996C125.866 53.3587 126.439 53.2383 127.031 53.2383C127.786 53.2383 128.438 53.3685 128.984 53.6289C129.538 53.8893 129.99 54.2539 130.342 54.7227C130.693 55.1849 130.954 55.7318 131.123 56.3633C131.292 56.9883 131.377 57.6719 131.377 58.4141V59.2246H123.486V57.75H129.57V57.6133C129.544 57.1445 129.447 56.6888 129.277 56.2461C129.115 55.8034 128.854 55.4388 128.496 55.1523C128.138 54.8659 127.65 54.7227 127.031 54.7227C126.621 54.7227 126.243 54.8105 125.898 54.9863C125.553 55.1556 125.257 55.4095 125.01 55.748C124.762 56.0866 124.57 56.5 124.434 56.9883C124.297 57.4766 124.229 58.0397 124.229 58.6777V59.0879C124.229 59.5892 124.297 60.0612 124.434 60.5039C124.577 60.9401 124.782 61.3242 125.049 61.6562C125.322 61.9883 125.651 62.2487 126.035 62.4375C126.426 62.6263 126.868 62.7207 127.363 62.7207C128.001 62.7207 128.542 62.5905 128.984 62.3301C129.427 62.0697 129.814 61.7214 130.146 61.2852L131.24 62.1543C131.012 62.4993 130.723 62.8281 130.371 63.1406C130.02 63.4531 129.587 63.707 129.072 63.9023C128.564 64.0977 127.962 64.1953 127.266 64.1953ZM140.146 61.9492V49H141.963V64H140.303L140.146 61.9492ZM133.037 58.834V58.6289C133.037 57.8216 133.135 57.0892 133.33 56.4316C133.532 55.7676 133.815 55.1979 134.18 54.7227C134.551 54.2474 134.99 53.8828 135.498 53.6289C136.012 53.3685 136.585 53.2383 137.217 53.2383C137.881 53.2383 138.46 53.3555 138.955 53.5898C139.456 53.8177 139.88 54.153 140.225 54.5957C140.576 55.0319 140.853 55.5592 141.055 56.1777C141.257 56.7962 141.396 57.4961 141.475 58.2773V59.1758C141.403 59.9505 141.263 60.6471 141.055 61.2656C140.853 61.8841 140.576 62.4115 140.225 62.8477C139.88 63.2839 139.456 63.6191 138.955 63.8535C138.454 64.0814 137.868 64.1953 137.197 64.1953C136.579 64.1953 136.012 64.0618 135.498 63.7949C134.99 63.528 134.551 63.1536 134.18 62.6719C133.815 62.1901 133.532 61.6237 133.33 60.9727C133.135 60.3151 133.037 59.6022 133.037 58.834ZM134.854 58.6289V58.834C134.854 59.3613 134.906 59.8561 135.01 60.3184C135.12 60.7806 135.29 61.1875 135.518 61.5391C135.745 61.8906 136.035 62.1673 136.387 62.3691C136.738 62.5645 137.158 62.6621 137.646 62.6621C138.245 62.6621 138.737 62.5352 139.121 62.2812C139.512 62.0273 139.824 61.6921 140.059 61.2754C140.293 60.8587 140.475 60.4062 140.605 59.918V57.5645C140.527 57.2064 140.413 56.8613 140.264 56.5293C140.12 56.1908 139.932 55.8913 139.697 55.6309C139.469 55.3639 139.186 55.1523 138.848 54.9961C138.516 54.8398 138.122 54.7617 137.666 54.7617C137.171 54.7617 136.745 54.8659 136.387 55.0742C136.035 55.276 135.745 55.556 135.518 55.9141C135.29 56.2656 135.12 56.6758 135.01 57.1445C134.906 57.6068 134.854 58.1016 134.854 58.6289ZM149.16 64.1953C148.424 64.1953 147.757 64.0716 147.158 63.8242C146.566 63.5703 146.055 63.2155 145.625 62.7598C145.202 62.304 144.876 61.7637 144.648 61.1387C144.421 60.5137 144.307 59.8301 144.307 59.0879V58.6777C144.307 57.8184 144.434 57.0534 144.688 56.3828C144.941 55.7057 145.286 55.1328 145.723 54.6641C146.159 54.1953 146.654 53.8405 147.207 53.5996C147.76 53.3587 148.333 53.2383 148.926 53.2383C149.681 53.2383 150.332 53.3685 150.879 53.6289C151.432 53.8893 151.885 54.2539 152.236 54.7227C152.588 55.1849 152.848 55.7318 153.018 56.3633C153.187 56.9883 153.271 57.6719 153.271 58.4141V59.2246H145.381V57.75H151.465V57.6133C151.439 57.1445 151.341 56.6888 151.172 56.2461C151.009 55.8034 150.749 55.4388 150.391 55.1523C150.033 54.8659 149.544 54.7227 148.926 54.7227C148.516 54.7227 148.138 54.8105 147.793 54.9863C147.448 55.1556 147.152 55.4095 146.904 55.748C146.657 56.0866 146.465 56.5 146.328 56.9883C146.191 57.4766 146.123 58.0397 146.123 58.6777V59.0879C146.123 59.5892 146.191 60.0612 146.328 60.5039C146.471 60.9401 146.676 61.3242 146.943 61.6562C147.217 61.9883 147.546 62.2487 147.93 62.4375C148.32 62.6263 148.763 62.7207 149.258 62.7207C149.896 62.7207 150.436 62.5905 150.879 62.3301C151.322 62.0697 151.709 61.7214 152.041 61.2852L153.135 62.1543C152.907 62.4993 152.617 62.8281 152.266 63.1406C151.914 63.4531 151.481 63.707 150.967 63.9023C150.459 64.0977 149.857 64.1953 149.16 64.1953ZM161.533 61.1973C161.533 60.9368 161.475 60.696 161.357 60.4746C161.247 60.2467 161.016 60.0417 160.664 59.8594C160.319 59.6706 159.798 59.5078 159.102 59.3711C158.516 59.2474 157.985 59.1009 157.51 58.9316C157.041 58.7624 156.641 58.5573 156.309 58.3164C155.983 58.0755 155.732 57.7923 155.557 57.4668C155.381 57.1413 155.293 56.7604 155.293 56.3242C155.293 55.9076 155.384 55.5137 155.566 55.1426C155.755 54.7715 156.019 54.4427 156.357 54.1562C156.702 53.8698 157.116 53.6452 157.598 53.4824C158.079 53.3197 158.617 53.2383 159.209 53.2383C160.055 53.2383 160.778 53.388 161.377 53.6875C161.976 53.987 162.435 54.3874 162.754 54.8887C163.073 55.3835 163.232 55.9336 163.232 56.5391H161.426C161.426 56.2461 161.338 55.9629 161.162 55.6895C160.993 55.4095 160.742 55.1784 160.41 54.9961C160.085 54.8138 159.684 54.7227 159.209 54.7227C158.708 54.7227 158.301 54.8008 157.988 54.957C157.682 55.1068 157.458 55.2988 157.314 55.5332C157.178 55.7676 157.109 56.015 157.109 56.2754C157.109 56.4707 157.142 56.6465 157.207 56.8027C157.279 56.9525 157.402 57.0924 157.578 57.2227C157.754 57.3464 158.001 57.4635 158.32 57.5742C158.639 57.6849 159.046 57.7956 159.541 57.9062C160.407 58.1016 161.12 58.3359 161.68 58.6094C162.24 58.8828 162.656 59.2181 162.93 59.6152C163.203 60.0124 163.34 60.4941 163.34 61.0605C163.34 61.5228 163.242 61.946 163.047 62.3301C162.858 62.7142 162.581 63.0462 162.217 63.3262C161.859 63.5996 161.429 63.8145 160.928 63.9707C160.433 64.1204 159.876 64.1953 159.258 64.1953C158.327 64.1953 157.539 64.0293 156.895 63.6973C156.25 63.3652 155.762 62.9355 155.43 62.4082C155.098 61.8809 154.932 61.3242 154.932 60.7383H156.748C156.774 61.2331 156.917 61.627 157.178 61.9199C157.438 62.2064 157.757 62.4115 158.135 62.5352C158.512 62.6523 158.887 62.7109 159.258 62.7109C159.753 62.7109 160.166 62.6458 160.498 62.5156C160.837 62.3854 161.094 62.2064 161.27 61.9785C161.445 61.7507 161.533 61.4902 161.533 61.1973ZM176.826 61.1973C176.826 60.9368 176.768 60.696 176.65 60.4746C176.54 60.2467 176.309 60.0417 175.957 59.8594C175.612 59.6706 175.091 59.5078 174.395 59.3711C173.809 59.2474 173.278 59.1009 172.803 58.9316C172.334 58.7624 171.934 58.5573 171.602 58.3164C171.276 58.0755 171.025 57.7923 170.85 57.4668C170.674 57.1413 170.586 56.7604 170.586 56.3242C170.586 55.9076 170.677 55.5137 170.859 55.1426C171.048 54.7715 171.312 54.4427 171.65 54.1562C171.995 53.8698 172.409 53.6452 172.891 53.4824C173.372 53.3197 173.91 53.2383 174.502 53.2383C175.348 53.2383 176.071 53.388 176.67 53.6875C177.269 53.987 177.728 54.3874 178.047 54.8887C178.366 55.3835 178.525 55.9336 178.525 56.5391H176.719C176.719 56.2461 176.631 55.9629 176.455 55.6895C176.286 55.4095 176.035 55.1784 175.703 54.9961C175.378 54.8138 174.977 54.7227 174.502 54.7227C174.001 54.7227 173.594 54.8008 173.281 54.957C172.975 55.1068 172.751 55.2988 172.607 55.5332C172.471 55.7676 172.402 56.015 172.402 56.2754C172.402 56.4707 172.435 56.6465 172.5 56.8027C172.572 56.9525 172.695 57.0924 172.871 57.2227C173.047 57.3464 173.294 57.4635 173.613 57.5742C173.932 57.6849 174.339 57.7956 174.834 57.9062C175.7 58.1016 176.413 58.3359 176.973 58.6094C177.533 58.8828 177.949 59.2181 178.223 59.6152C178.496 60.0124 178.633 60.4941 178.633 61.0605C178.633 61.5228 178.535 61.946 178.34 62.3301C178.151 62.7142 177.874 63.0462 177.51 63.3262C177.152 63.5996 176.722 63.8145 176.221 63.9707C175.726 64.1204 175.169 64.1953 174.551 64.1953C173.62 64.1953 172.832 64.0293 172.188 63.6973C171.543 63.3652 171.055 62.9355 170.723 62.4082C170.391 61.8809 170.225 61.3242 170.225 60.7383H172.041C172.067 61.2331 172.21 61.627 172.471 61.9199C172.731 62.2064 173.05 62.4115 173.428 62.5352C173.805 62.6523 174.18 62.7109 174.551 62.7109C175.046 62.7109 175.459 62.6458 175.791 62.5156C176.13 62.3854 176.387 62.2064 176.562 61.9785C176.738 61.7507 176.826 61.4902 176.826 61.1973ZM180.527 58.834V58.6094C180.527 57.8477 180.638 57.1413 180.859 56.4902C181.081 55.8327 181.4 55.263 181.816 54.7812C182.233 54.293 182.738 53.9154 183.33 53.6484C183.923 53.375 184.587 53.2383 185.322 53.2383C186.064 53.2383 186.732 53.375 187.324 53.6484C187.923 53.9154 188.431 54.293 188.848 54.7812C189.271 55.263 189.593 55.8327 189.814 56.4902C190.036 57.1413 190.146 57.8477 190.146 58.6094V58.834C190.146 59.5957 190.036 60.3021 189.814 60.9531C189.593 61.6042 189.271 62.1738 188.848 62.6621C188.431 63.1439 187.926 63.5215 187.334 63.7949C186.748 64.0618 186.084 64.1953 185.342 64.1953C184.6 64.1953 183.932 64.0618 183.34 63.7949C182.747 63.5215 182.24 63.1439 181.816 62.6621C181.4 62.1738 181.081 61.6042 180.859 60.9531C180.638 60.3021 180.527 59.5957 180.527 58.834ZM182.334 58.6094V58.834C182.334 59.3613 182.396 59.8594 182.52 60.3281C182.643 60.7904 182.829 61.2005 183.076 61.5586C183.33 61.9167 183.646 62.1999 184.023 62.4082C184.401 62.61 184.84 62.7109 185.342 62.7109C185.837 62.7109 186.27 62.61 186.641 62.4082C187.018 62.1999 187.331 61.9167 187.578 61.5586C187.826 61.2005 188.011 60.7904 188.135 60.3281C188.265 59.8594 188.33 59.3613 188.33 58.834V58.6094C188.33 58.0885 188.265 57.597 188.135 57.1348C188.011 56.666 187.822 56.2526 187.568 55.8945C187.321 55.5299 187.008 55.2435 186.631 55.0352C186.26 54.8268 185.824 54.7227 185.322 54.7227C184.827 54.7227 184.391 54.8268 184.014 55.0352C183.643 55.2435 183.33 55.5299 183.076 55.8945C182.829 56.2526 182.643 56.666 182.52 57.1348C182.396 57.597 182.334 58.0885 182.334 58.6094ZM196.641 62.7109C197.07 62.7109 197.467 62.623 197.832 62.4473C198.197 62.2715 198.496 62.0306 198.73 61.7246C198.965 61.4121 199.098 61.0573 199.131 60.6602H200.85C200.817 61.2852 200.605 61.8678 200.215 62.4082C199.831 62.9421 199.326 63.375 198.701 63.707C198.076 64.0326 197.389 64.1953 196.641 64.1953C195.846 64.1953 195.153 64.0553 194.561 63.7754C193.975 63.4954 193.486 63.1113 193.096 62.623C192.712 62.1348 192.422 61.5749 192.227 60.9434C192.038 60.3053 191.943 59.6315 191.943 58.9219V58.5117C191.943 57.8021 192.038 57.1315 192.227 56.5C192.422 55.862 192.712 55.2988 193.096 54.8105C193.486 54.3223 193.975 53.9382 194.561 53.6582C195.153 53.3783 195.846 53.2383 196.641 53.2383C197.467 53.2383 198.19 53.4076 198.809 53.7461C199.427 54.0781 199.912 54.5339 200.264 55.1133C200.622 55.6862 200.817 56.3372 200.85 57.0664H199.131C199.098 56.6302 198.975 56.2363 198.76 55.8848C198.551 55.5332 198.265 55.2533 197.9 55.0449C197.542 54.8301 197.122 54.7227 196.641 54.7227C196.087 54.7227 195.622 54.8333 195.244 55.0547C194.873 55.2695 194.577 55.5625 194.355 55.9336C194.141 56.2982 193.984 56.7051 193.887 57.1543C193.796 57.597 193.75 58.0495 193.75 58.5117V58.9219C193.75 59.3841 193.796 59.8398 193.887 60.2891C193.978 60.7383 194.131 61.1452 194.346 61.5098C194.567 61.8743 194.863 62.1673 195.234 62.3887C195.612 62.6035 196.081 62.7109 196.641 62.7109ZM204.844 53.4336V64H203.027V53.4336H204.844ZM202.891 50.6309C202.891 50.3379 202.979 50.0905 203.154 49.8887C203.337 49.6868 203.604 49.5859 203.955 49.5859C204.3 49.5859 204.564 49.6868 204.746 49.8887C204.935 50.0905 205.029 50.3379 205.029 50.6309C205.029 50.9108 204.935 51.1517 204.746 51.3535C204.564 51.5488 204.3 51.6465 203.955 51.6465C203.604 51.6465 203.337 51.5488 203.154 51.3535C202.979 51.1517 202.891 50.9108 202.891 50.6309ZM213.975 62.1934V56.7539C213.975 56.3372 213.89 55.9759 213.721 55.6699C213.558 55.3574 213.311 55.1165 212.979 54.9473C212.646 54.778 212.236 54.6934 211.748 54.6934C211.292 54.6934 210.892 54.7715 210.547 54.9277C210.208 55.084 209.941 55.2891 209.746 55.543C209.557 55.7969 209.463 56.0703 209.463 56.3633H207.656C207.656 55.9857 207.754 55.6113 207.949 55.2402C208.145 54.8691 208.424 54.5339 208.789 54.2344C209.16 53.9284 209.603 53.6875 210.117 53.5117C210.638 53.3294 211.217 53.2383 211.855 53.2383C212.624 53.2383 213.301 53.3685 213.887 53.6289C214.479 53.8893 214.941 54.2832 215.273 54.8105C215.612 55.3314 215.781 55.9857 215.781 56.7734V61.6953C215.781 62.0469 215.811 62.4212 215.869 62.8184C215.934 63.2155 216.029 63.5573 216.152 63.8438V64H214.268C214.176 63.7917 214.105 63.515 214.053 63.1699C214.001 62.8184 213.975 62.4928 213.975 62.1934ZM214.287 57.5938L214.307 58.8633H212.48C211.966 58.8633 211.507 58.9056 211.104 58.9902C210.7 59.0684 210.361 59.1888 210.088 59.3516C209.814 59.5143 209.606 59.7194 209.463 59.9668C209.32 60.2077 209.248 60.4909 209.248 60.8164C209.248 61.1484 209.323 61.4512 209.473 61.7246C209.622 61.998 209.847 62.2161 210.146 62.3789C210.452 62.5352 210.827 62.6133 211.27 62.6133C211.823 62.6133 212.311 62.4961 212.734 62.2617C213.158 62.0273 213.493 61.7409 213.74 61.4023C213.994 61.0638 214.131 60.735 214.15 60.416L214.922 61.2852C214.876 61.5586 214.753 61.8613 214.551 62.1934C214.349 62.5254 214.079 62.8444 213.74 63.1504C213.408 63.4499 213.011 63.7005 212.549 63.9023C212.093 64.0977 211.579 64.1953 211.006 64.1953C210.29 64.1953 209.661 64.0553 209.121 63.7754C208.587 63.4954 208.171 63.1211 207.871 62.6523C207.578 62.1771 207.432 61.6465 207.432 61.0605C207.432 60.4941 207.542 59.9961 207.764 59.5664C207.985 59.1302 208.304 58.7689 208.721 58.4824C209.137 58.1895 209.639 57.9681 210.225 57.8184C210.811 57.6686 211.465 57.5938 212.188 57.5938H214.287ZM220.586 53.4336V64H218.77V53.4336H220.586ZM218.633 50.6309C218.633 50.3379 218.721 50.0905 218.896 49.8887C219.079 49.6868 219.346 49.5859 219.697 49.5859C220.042 49.5859 220.306 49.6868 220.488 49.8887C220.677 50.0905 220.771 50.3379 220.771 50.6309C220.771 50.9108 220.677 51.1517 220.488 51.3535C220.306 51.5488 220.042 51.6465 219.697 51.6465C219.346 51.6465 219.079 51.5488 218.896 51.3535C218.721 51.1517 218.633 50.9108 218.633 50.6309ZM229.639 61.1973C229.639 60.9368 229.58 60.696 229.463 60.4746C229.352 60.2467 229.121 60.0417 228.77 59.8594C228.424 59.6706 227.904 59.5078 227.207 59.3711C226.621 59.2474 226.09 59.1009 225.615 58.9316C225.146 58.7624 224.746 58.5573 224.414 58.3164C224.089 58.0755 223.838 57.7923 223.662 57.4668C223.486 57.1413 223.398 56.7604 223.398 56.3242C223.398 55.9076 223.49 55.5137 223.672 55.1426C223.861 54.7715 224.124 54.4427 224.463 54.1562C224.808 53.8698 225.221 53.6452 225.703 53.4824C226.185 53.3197 226.722 53.2383 227.314 53.2383C228.161 53.2383 228.883 53.388 229.482 53.6875C230.081 53.987 230.54 54.3874 230.859 54.8887C231.178 55.3835 231.338 55.9336 231.338 56.5391H229.531C229.531 56.2461 229.443 55.9629 229.268 55.6895C229.098 55.4095 228.848 55.1784 228.516 54.9961C228.19 54.8138 227.79 54.7227 227.314 54.7227C226.813 54.7227 226.406 54.8008 226.094 54.957C225.788 55.1068 225.563 55.2988 225.42 55.5332C225.283 55.7676 225.215 56.015 225.215 56.2754C225.215 56.4707 225.247 56.6465 225.312 56.8027C225.384 56.9525 225.508 57.0924 225.684 57.2227C225.859 57.3464 226.107 57.4635 226.426 57.5742C226.745 57.6849 227.152 57.7956 227.646 57.9062C228.512 58.1016 229.225 58.3359 229.785 58.6094C230.345 58.8828 230.762 59.2181 231.035 59.6152C231.309 60.0124 231.445 60.4941 231.445 61.0605C231.445 61.5228 231.348 61.946 231.152 62.3301C230.964 62.7142 230.687 63.0462 230.322 63.3262C229.964 63.5996 229.535 63.8145 229.033 63.9707C228.538 64.1204 227.982 64.1953 227.363 64.1953C226.432 64.1953 225.645 64.0293 225 63.6973C224.355 63.3652 223.867 62.9355 223.535 62.4082C223.203 61.8809 223.037 61.3242 223.037 60.7383H224.854C224.88 61.2331 225.023 61.627 225.283 61.9199C225.544 62.2064 225.863 62.4115 226.24 62.5352C226.618 62.6523 226.992 62.7109 227.363 62.7109C227.858 62.7109 228.271 62.6458 228.604 62.5156C228.942 62.3854 229.199 62.2064 229.375 61.9785C229.551 61.7507 229.639 61.4902 229.639 61.1973ZM243.008 62.7109C243.438 62.7109 243.835 62.623 244.199 62.4473C244.564 62.2715 244.863 62.0306 245.098 61.7246C245.332 61.4121 245.465 61.0573 245.498 60.6602H247.217C247.184 61.2852 246.973 61.8678 246.582 62.4082C246.198 62.9421 245.693 63.375 245.068 63.707C244.443 64.0326 243.757 64.1953 243.008 64.1953C242.214 64.1953 241.52 64.0553 240.928 63.7754C240.342 63.4954 239.854 63.1113 239.463 62.623C239.079 62.1348 238.789 61.5749 238.594 60.9434C238.405 60.3053 238.311 59.6315 238.311 58.9219V58.5117C238.311 57.8021 238.405 57.1315 238.594 56.5C238.789 55.862 239.079 55.2988 239.463 54.8105C239.854 54.3223 240.342 53.9382 240.928 53.6582C241.52 53.3783 242.214 53.2383 243.008 53.2383C243.835 53.2383 244.557 53.4076 245.176 53.7461C245.794 54.0781 246.279 54.5339 246.631 55.1133C246.989 55.6862 247.184 56.3372 247.217 57.0664H245.498C245.465 56.6302 245.342 56.2363 245.127 55.8848C244.919 55.5332 244.632 55.2533 244.268 55.0449C243.91 54.8301 243.49 54.7227 243.008 54.7227C242.454 54.7227 241.989 54.8333 241.611 55.0547C241.24 55.2695 240.944 55.5625 240.723 55.9336C240.508 56.2982 240.352 56.7051 240.254 57.1543C240.163 57.597 240.117 58.0495 240.117 58.5117V58.9219C240.117 59.3841 240.163 59.8398 240.254 60.2891C240.345 60.7383 240.498 61.1452 240.713 61.5098C240.934 61.8743 241.23 62.1673 241.602 62.3887C241.979 62.6035 242.448 62.7109 243.008 62.7109ZM248.77 58.834V58.6094C248.77 57.8477 248.88 57.1413 249.102 56.4902C249.323 55.8327 249.642 55.263 250.059 54.7812C250.475 54.293 250.98 53.9154 251.572 53.6484C252.165 53.375 252.829 53.2383 253.564 53.2383C254.307 53.2383 254.974 53.375 255.566 53.6484C256.165 53.9154 256.673 54.293 257.09 54.7812C257.513 55.263 257.835 55.8327 258.057 56.4902C258.278 57.1413 258.389 57.8477 258.389 58.6094V58.834C258.389 59.5957 258.278 60.3021 258.057 60.9531C257.835 61.6042 257.513 62.1738 257.09 62.6621C256.673 63.1439 256.169 63.5215 255.576 63.7949C254.99 64.0618 254.326 64.1953 253.584 64.1953C252.842 64.1953 252.174 64.0618 251.582 63.7949C250.99 63.5215 250.482 63.1439 250.059 62.6621C249.642 62.1738 249.323 61.6042 249.102 60.9531C248.88 60.3021 248.77 59.5957 248.77 58.834ZM250.576 58.6094V58.834C250.576 59.3613 250.638 59.8594 250.762 60.3281C250.885 60.7904 251.071 61.2005 251.318 61.5586C251.572 61.9167 251.888 62.1999 252.266 62.4082C252.643 62.61 253.083 62.7109 253.584 62.7109C254.079 62.7109 254.512 62.61 254.883 62.4082C255.26 62.1999 255.573 61.9167 255.82 61.5586C256.068 61.2005 256.253 60.7904 256.377 60.3281C256.507 59.8594 256.572 59.3613 256.572 58.834V58.6094C256.572 58.0885 256.507 57.597 256.377 57.1348C256.253 56.666 256.064 56.2526 255.811 55.8945C255.563 55.5299 255.251 55.2435 254.873 55.0352C254.502 54.8268 254.066 54.7227 253.564 54.7227C253.07 54.7227 252.633 54.8268 252.256 55.0352C251.885 55.2435 251.572 55.5299 251.318 55.8945C251.071 56.2526 250.885 56.666 250.762 57.1348C250.638 57.597 250.576 58.0885 250.576 58.6094ZM262.451 55.5332V64H260.635V53.4336H262.354L262.451 55.5332ZM262.08 58.3164L261.24 58.2871C261.247 57.5645 261.341 56.8971 261.523 56.2852C261.706 55.6667 261.976 55.1296 262.334 54.6738C262.692 54.2181 263.138 53.8665 263.672 53.6191C264.206 53.3652 264.824 53.2383 265.527 53.2383C266.022 53.2383 266.478 53.3099 266.895 53.4531C267.311 53.5898 267.673 53.8079 267.979 54.1074C268.285 54.4069 268.522 54.791 268.691 55.2598C268.861 55.7285 268.945 56.2949 268.945 56.959V64H267.139V57.0469C267.139 56.4935 267.044 56.0508 266.855 55.7188C266.673 55.3867 266.413 55.1458 266.074 54.9961C265.736 54.8398 265.339 54.7617 264.883 54.7617C264.349 54.7617 263.903 54.8561 263.545 55.0449C263.187 55.2337 262.9 55.4941 262.686 55.8262C262.471 56.1582 262.314 56.5391 262.217 56.9688C262.126 57.3919 262.08 57.8411 262.08 58.3164ZM268.926 57.3203L267.715 57.6914C267.721 57.112 267.816 56.5553 267.998 56.0215C268.187 55.4876 268.457 55.0124 268.809 54.5957C269.167 54.179 269.606 53.8503 270.127 53.6094C270.648 53.362 271.243 53.2383 271.914 53.2383C272.48 53.2383 272.982 53.3132 273.418 53.4629C273.861 53.6126 274.232 53.8438 274.531 54.1562C274.837 54.4622 275.068 54.8561 275.225 55.3379C275.381 55.8197 275.459 56.3926 275.459 57.0566V64H273.643V57.0371C273.643 56.4447 273.548 55.9857 273.359 55.6602C273.177 55.3281 272.917 55.097 272.578 54.9668C272.246 54.8301 271.849 54.7617 271.387 54.7617C270.99 54.7617 270.638 54.8301 270.332 54.9668C270.026 55.1035 269.769 55.2923 269.561 55.5332C269.352 55.7676 269.193 56.0378 269.082 56.3438C268.978 56.6497 268.926 56.9753 268.926 57.3203ZM289.385 62.1934V56.7539C289.385 56.3372 289.3 55.9759 289.131 55.6699C288.968 55.3574 288.721 55.1165 288.389 54.9473C288.057 54.778 287.646 54.6934 287.158 54.6934C286.702 54.6934 286.302 54.7715 285.957 54.9277C285.618 55.084 285.352 55.2891 285.156 55.543C284.967 55.7969 284.873 56.0703 284.873 56.3633H283.066C283.066 55.9857 283.164 55.6113 283.359 55.2402C283.555 54.8691 283.835 54.5339 284.199 54.2344C284.57 53.9284 285.013 53.6875 285.527 53.5117C286.048 53.3294 286.628 53.2383 287.266 53.2383C288.034 53.2383 288.711 53.3685 289.297 53.6289C289.889 53.8893 290.352 54.2832 290.684 54.8105C291.022 55.3314 291.191 55.9857 291.191 56.7734V61.6953C291.191 62.0469 291.221 62.4212 291.279 62.8184C291.344 63.2155 291.439 63.5573 291.562 63.8438V64H289.678C289.587 63.7917 289.515 63.515 289.463 63.1699C289.411 62.8184 289.385 62.4928 289.385 62.1934ZM289.697 57.5938L289.717 58.8633H287.891C287.376 58.8633 286.917 58.9056 286.514 58.9902C286.11 59.0684 285.771 59.1888 285.498 59.3516C285.225 59.5143 285.016 59.7194 284.873 59.9668C284.73 60.2077 284.658 60.4909 284.658 60.8164C284.658 61.1484 284.733 61.4512 284.883 61.7246C285.033 61.998 285.257 62.2161 285.557 62.3789C285.863 62.5352 286.237 62.6133 286.68 62.6133C287.233 62.6133 287.721 62.4961 288.145 62.2617C288.568 62.0273 288.903 61.7409 289.15 61.4023C289.404 61.0638 289.541 60.735 289.561 60.416L290.332 61.2852C290.286 61.5586 290.163 61.8613 289.961 62.1934C289.759 62.5254 289.489 62.8444 289.15 63.1504C288.818 63.4499 288.421 63.7005 287.959 63.9023C287.503 64.0977 286.989 64.1953 286.416 64.1953C285.7 64.1953 285.072 64.0553 284.531 63.7754C283.997 63.4954 283.581 63.1211 283.281 62.6523C282.988 62.1771 282.842 61.6465 282.842 61.0605C282.842 60.4941 282.952 59.9961 283.174 59.5664C283.395 59.1302 283.714 58.7689 284.131 58.4824C284.548 58.1895 285.049 57.9681 285.635 57.8184C286.221 57.6686 286.875 57.5938 287.598 57.5938H289.697ZM300.801 49V64H298.994V49H300.801ZM300.371 58.3164L299.619 58.2871C299.626 57.5645 299.733 56.8971 299.941 56.2852C300.15 55.6667 300.443 55.1296 300.82 54.6738C301.198 54.2181 301.647 53.8665 302.168 53.6191C302.695 53.3652 303.278 53.2383 303.916 53.2383C304.437 53.2383 304.906 53.3099 305.322 53.4531C305.739 53.5898 306.094 53.8112 306.387 54.1172C306.686 54.4232 306.914 54.8203 307.07 55.3086C307.227 55.7904 307.305 56.3796 307.305 57.0762V64H305.488V57.0566C305.488 56.5033 305.407 56.0605 305.244 55.7285C305.081 55.39 304.844 55.1458 304.531 54.9961C304.219 54.8398 303.835 54.7617 303.379 54.7617C302.93 54.7617 302.52 54.8561 302.148 55.0449C301.784 55.2337 301.468 55.4941 301.201 55.8262C300.941 56.1582 300.736 56.5391 300.586 56.9688C300.443 57.3919 300.371 57.8411 300.371 58.3164ZM316.24 62.1934V56.7539C316.24 56.3372 316.156 55.9759 315.986 55.6699C315.824 55.3574 315.576 55.1165 315.244 54.9473C314.912 54.778 314.502 54.6934 314.014 54.6934C313.558 54.6934 313.158 54.7715 312.812 54.9277C312.474 55.084 312.207 55.2891 312.012 55.543C311.823 55.7969 311.729 56.0703 311.729 56.3633H309.922C309.922 55.9857 310.02 55.6113 310.215 55.2402C310.41 54.8691 310.69 54.5339 311.055 54.2344C311.426 53.9284 311.868 53.6875 312.383 53.5117C312.904 53.3294 313.483 53.2383 314.121 53.2383C314.889 53.2383 315.566 53.3685 316.152 53.6289C316.745 53.8893 317.207 54.2832 317.539 54.8105C317.878 55.3314 318.047 55.9857 318.047 56.7734V61.6953C318.047 62.0469 318.076 62.4212 318.135 62.8184C318.2 63.2155 318.294 63.5573 318.418 63.8438V64H316.533C316.442 63.7917 316.37 63.515 316.318 63.1699C316.266 62.8184 316.24 62.4928 316.24 62.1934ZM316.553 57.5938L316.572 58.8633H314.746C314.232 58.8633 313.773 58.9056 313.369 58.9902C312.965 59.0684 312.627 59.1888 312.354 59.3516C312.08 59.5143 311.872 59.7194 311.729 59.9668C311.585 60.2077 311.514 60.4909 311.514 60.8164C311.514 61.1484 311.589 61.4512 311.738 61.7246C311.888 61.998 312.113 62.2161 312.412 62.3789C312.718 62.5352 313.092 62.6133 313.535 62.6133C314.089 62.6133 314.577 62.4961 315 62.2617C315.423 62.0273 315.758 61.7409 316.006 61.4023C316.26 61.0638 316.396 60.735 316.416 60.416L317.188 61.2852C317.142 61.5586 317.018 61.8613 316.816 62.1934C316.615 62.5254 316.344 62.8444 316.006 63.1504C315.674 63.4499 315.277 63.7005 314.814 63.9023C314.359 64.0977 313.844 64.1953 313.271 64.1953C312.555 64.1953 311.927 64.0553 311.387 63.7754C310.853 63.4954 310.436 63.1211 310.137 62.6523C309.844 62.1771 309.697 61.6465 309.697 61.0605C309.697 60.4941 309.808 59.9961 310.029 59.5664C310.251 59.1302 310.57 58.7689 310.986 58.4824C311.403 58.1895 311.904 57.9681 312.49 57.8184C313.076 57.6686 313.73 57.5938 314.453 57.5938H316.553ZM327.041 61.1973C327.041 60.9368 326.982 60.696 326.865 60.4746C326.755 60.2467 326.523 60.0417 326.172 59.8594C325.827 59.6706 325.306 59.5078 324.609 59.3711C324.023 59.2474 323.493 59.1009 323.018 58.9316C322.549 58.7624 322.148 58.5573 321.816 58.3164C321.491 58.0755 321.24 57.7923 321.064 57.4668C320.889 57.1413 320.801 56.7604 320.801 56.3242C320.801 55.9076 320.892 55.5137 321.074 55.1426C321.263 54.7715 321.527 54.4427 321.865 54.1562C322.21 53.8698 322.624 53.6452 323.105 53.4824C323.587 53.3197 324.124 53.2383 324.717 53.2383C325.563 53.2383 326.286 53.388 326.885 53.6875C327.484 53.987 327.943 54.3874 328.262 54.8887C328.581 55.3835 328.74 55.9336 328.74 56.5391H326.934C326.934 56.2461 326.846 55.9629 326.67 55.6895C326.501 55.4095 326.25 55.1784 325.918 54.9961C325.592 54.8138 325.192 54.7227 324.717 54.7227C324.215 54.7227 323.809 54.8008 323.496 54.957C323.19 55.1068 322.965 55.2988 322.822 55.5332C322.686 55.7676 322.617 56.015 322.617 56.2754C322.617 56.4707 322.65 56.6465 322.715 56.8027C322.786 56.9525 322.91 57.0924 323.086 57.2227C323.262 57.3464 323.509 57.4635 323.828 57.5742C324.147 57.6849 324.554 57.7956 325.049 57.9062C325.915 58.1016 326.628 58.3359 327.188 58.6094C327.747 58.8828 328.164 59.2181 328.438 59.6152C328.711 60.0124 328.848 60.4941 328.848 61.0605C328.848 61.5228 328.75 61.946 328.555 62.3301C328.366 62.7142 328.089 63.0462 327.725 63.3262C327.367 63.5996 326.937 63.8145 326.436 63.9707C325.941 64.1204 325.384 64.1953 324.766 64.1953C323.835 64.1953 323.047 64.0293 322.402 63.6973C321.758 63.3652 321.27 62.9355 320.938 62.4082C320.605 61.8809 320.439 61.3242 320.439 60.7383H322.256C322.282 61.2331 322.425 61.627 322.686 61.9199C322.946 62.2064 323.265 62.4115 323.643 62.5352C324.02 62.6523 324.395 62.7109 324.766 62.7109C325.26 62.7109 325.674 62.6458 326.006 62.5156C326.344 62.3854 326.602 62.2064 326.777 61.9785C326.953 61.7507 327.041 61.4902 327.041 61.1973ZM333.027 49V64H331.221V49H333.027ZM332.598 58.3164L331.846 58.2871C331.852 57.5645 331.96 56.8971 332.168 56.2852C332.376 55.6667 332.669 55.1296 333.047 54.6738C333.424 54.2181 333.874 53.8665 334.395 53.6191C334.922 53.3652 335.505 53.2383 336.143 53.2383C336.663 53.2383 337.132 53.3099 337.549 53.4531C337.965 53.5898 338.32 53.8112 338.613 54.1172C338.913 54.4232 339.141 54.8203 339.297 55.3086C339.453 55.7904 339.531 56.3796 339.531 57.0762V64H337.715V57.0566C337.715 56.5033 337.633 56.0605 337.471 55.7285C337.308 55.39 337.07 55.1458 336.758 54.9961C336.445 54.8398 336.061 54.7617 335.605 54.7617C335.156 54.7617 334.746 54.8561 334.375 55.0449C334.01 55.2337 333.695 55.4941 333.428 55.8262C333.167 56.1582 332.962 56.5391 332.812 56.9688C332.669 57.3919 332.598 57.8411 332.598 58.3164ZM346.66 53.4336V54.8203H340.947V53.4336H346.66ZM342.881 50.8652H344.688V61.3828C344.688 61.7409 344.743 62.0111 344.854 62.1934C344.964 62.3757 345.107 62.4961 345.283 62.5547C345.459 62.6133 345.648 62.6426 345.85 62.6426C345.999 62.6426 346.156 62.6296 346.318 62.6035C346.488 62.571 346.615 62.5449 346.699 62.5254L346.709 64C346.566 64.0456 346.377 64.0879 346.143 64.127C345.915 64.1725 345.638 64.1953 345.312 64.1953C344.87 64.1953 344.463 64.1074 344.092 63.9316C343.721 63.7559 343.424 63.4629 343.203 63.0527C342.988 62.6361 342.881 62.0762 342.881 61.373V50.8652ZM355.01 62.1934V56.7539C355.01 56.3372 354.925 55.9759 354.756 55.6699C354.593 55.3574 354.346 55.1165 354.014 54.9473C353.682 54.778 353.271 54.6934 352.783 54.6934C352.327 54.6934 351.927 54.7715 351.582 54.9277C351.243 55.084 350.977 55.2891 350.781 55.543C350.592 55.7969 350.498 56.0703 350.498 56.3633H348.691C348.691 55.9857 348.789 55.6113 348.984 55.2402C349.18 54.8691 349.46 54.5339 349.824 54.2344C350.195 53.9284 350.638 53.6875 351.152 53.5117C351.673 53.3294 352.253 53.2383 352.891 53.2383C353.659 53.2383 354.336 53.3685 354.922 53.6289C355.514 53.8893 355.977 54.2832 356.309 54.8105C356.647 55.3314 356.816 55.9857 356.816 56.7734V61.6953C356.816 62.0469 356.846 62.4212 356.904 62.8184C356.969 63.2155 357.064 63.5573 357.188 63.8438V64H355.303C355.212 63.7917 355.14 63.515 355.088 63.1699C355.036 62.8184 355.01 62.4928 355.01 62.1934ZM355.322 57.5938L355.342 58.8633H353.516C353.001 58.8633 352.542 58.9056 352.139 58.9902C351.735 59.0684 351.396 59.1888 351.123 59.3516C350.85 59.5143 350.641 59.7194 350.498 59.9668C350.355 60.2077 350.283 60.4909 350.283 60.8164C350.283 61.1484 350.358 61.4512 350.508 61.7246C350.658 61.998 350.882 62.2161 351.182 62.3789C351.488 62.5352 351.862 62.6133 352.305 62.6133C352.858 62.6133 353.346 62.4961 353.77 62.2617C354.193 62.0273 354.528 61.7409 354.775 61.4023C355.029 61.0638 355.166 60.735 355.186 60.416L355.957 61.2852C355.911 61.5586 355.788 61.8613 355.586 62.1934C355.384 62.5254 355.114 62.8444 354.775 63.1504C354.443 63.4499 354.046 63.7005 353.584 63.9023C353.128 64.0977 352.614 64.1953 352.041 64.1953C351.325 64.1953 350.697 64.0553 350.156 63.7754C349.622 63.4954 349.206 63.1211 348.906 62.6523C348.613 62.1771 348.467 61.6465 348.467 61.0605C348.467 60.4941 348.577 59.9961 348.799 59.5664C349.02 59.1302 349.339 58.7689 349.756 58.4824C350.173 58.1895 350.674 57.9681 351.26 57.8184C351.846 57.6686 352.5 57.5938 353.223 57.5938H355.322ZM366.504 53.4336H368.145V63.7754C368.145 64.7064 367.956 65.5007 367.578 66.1582C367.201 66.8158 366.673 67.3138 365.996 67.6523C365.326 67.9974 364.551 68.1699 363.672 68.1699C363.307 68.1699 362.878 68.1113 362.383 67.9941C361.895 67.8835 361.413 67.6914 360.938 67.418C360.469 67.151 360.075 66.7897 359.756 66.334L360.703 65.2598C361.146 65.7936 361.608 66.1647 362.09 66.373C362.578 66.5814 363.06 66.6855 363.535 66.6855C364.108 66.6855 364.603 66.5781 365.02 66.3633C365.436 66.1484 365.758 65.8294 365.986 65.4062C366.221 64.9896 366.338 64.4753 366.338 63.8633V55.7578L366.504 53.4336ZM359.229 58.834V58.6289C359.229 57.8216 359.323 57.0892 359.512 56.4316C359.707 55.7676 359.984 55.1979 360.342 54.7227C360.706 54.2474 361.146 53.8828 361.66 53.6289C362.174 53.3685 362.754 53.2383 363.398 53.2383C364.062 53.2383 364.642 53.3555 365.137 53.5898C365.638 53.8177 366.061 54.153 366.406 54.5957C366.758 55.0319 367.035 55.5592 367.236 56.1777C367.438 56.7962 367.578 57.4961 367.656 58.2773V59.1758C367.585 59.9505 367.445 60.6471 367.236 61.2656C367.035 61.8841 366.758 62.4115 366.406 62.8477C366.061 63.2839 365.638 63.6191 365.137 63.8535C364.635 64.0814 364.049 64.1953 363.379 64.1953C362.747 64.1953 362.174 64.0618 361.66 63.7949C361.152 63.528 360.716 63.1536 360.352 62.6719C359.987 62.1901 359.707 61.6237 359.512 60.9727C359.323 60.3151 359.229 59.6022 359.229 58.834ZM361.035 58.6289V58.834C361.035 59.3613 361.087 59.8561 361.191 60.3184C361.302 60.7806 361.468 61.1875 361.689 61.5391C361.917 61.8906 362.207 62.1673 362.559 62.3691C362.91 62.5645 363.33 62.6621 363.818 62.6621C364.417 62.6621 364.912 62.5352 365.303 62.2812C365.693 62.0273 366.003 61.6921 366.23 61.2754C366.465 60.8587 366.647 60.4062 366.777 59.918V57.5645C366.706 57.2064 366.595 56.8613 366.445 56.5293C366.302 56.1908 366.113 55.8913 365.879 55.6309C365.651 55.3639 365.368 55.1523 365.029 54.9961C364.691 54.8398 364.294 54.7617 363.838 54.7617C363.343 54.7617 362.917 54.8659 362.559 55.0742C362.207 55.276 361.917 55.556 361.689 55.9141C361.468 56.2656 361.302 56.6758 361.191 57.1445C361.087 57.6068 361.035 58.1016 361.035 58.6289Z" fill="#E1E1E6"/>
</svg>
