<svg version="1.1" id="Layer_1" xmlns="http://www.w3.org/2000/svg" xmlns:xlink="http://www.w3.org/1999/xlink" viewBox="-71.68 -71.68 655.36 655.36" xml:space="preserve" width="256px" height="256px" fill="#000000" stroke="#000000" stroke-width="0.00512"><g id="SVGRepo_bgCarrier" stroke-width="0"></g><g id="SVGRepo_tracerCarrier" stroke-linecap="round" stroke-linejoin="round"></g><g id="SVGRepo_iconCarrier"> <rect x="92.933" y="23.273" style="fill:#FFFFFF;" width="326.128" height="465.455"></rect> <path style="fill:#3f1381;" d="M419.067,0H92.933C80.08,0,69.66,10.42,69.66,23.273v139.636v325.818 C69.66,501.582,80.08,512,92.933,512h326.133c12.853,0,23.273-10.418,23.273-23.273V162.909V23.273C442.34,10.42,431.92,0,419.067,0 z M286.872,465.455h-62.061v-62.061h62.061V465.455z M286.872,356.848h-62.061v-62.061h62.061V356.848z M116.205,294.788h62.061 v62.061h-62.061V294.788z M116.205,248.242v-62.061h62.061v62.061H116.205z M224.811,248.242v-62.061h62.061v62.061H224.811z M333.417,186.182h62.376v62.061h-62.376V186.182z M395.795,46.545v93.091H116.205V46.545H395.795z M116.205,403.394h62.061v62.061 h-62.061V403.394z M333.417,465.455V294.788h62.376v170.667H333.417z"></path> <path style="fill:#3f1381;" d="M419.067,0H256v46.545h139.795v93.091H256v46.545h30.872v62.061H256v46.545h30.872v62.061H256v46.545 h30.872v62.061H256V512h163.067c12.853,0,23.273-10.418,23.273-23.273V162.909V23.273C442.34,10.42,431.92,0,419.067,0z M395.795,465.455h-62.376V294.788h62.376V465.455z M395.795,248.242h-62.376v-62.061h62.376V248.242z"></path> </g></svg>